<?xml version="1.0" encoding="utf-8" standalone="no"?>
<!DOCTYPE svg PUBLIC "-//W3C//DTD SVG 1.1//EN"
  "http://www.w3.org/Graphics/SVG/1.1/DTD/svg11.dtd">
<svg xmlns:xlink="http://www.w3.org/1999/xlink" width="306.500122pt" height="214.608281pt" viewBox="0 0 306.500122 214.608281" xmlns="http://www.w3.org/2000/svg" version="1.1">
 <metadata>
  <rdf:RDF xmlns:dc="http://purl.org/dc/elements/1.1/" xmlns:cc="http://creativecommons.org/ns#" xmlns:rdf="http://www.w3.org/1999/02/22-rdf-syntax-ns#">
   <cc:Work>
    <dc:type rdf:resource="http://purl.org/dc/dcmitype/StillImage"/>
    <dc:date>2024-05-02T21:49:22.810705</dc:date>
    <dc:format>image/svg+xml</dc:format>
    <dc:creator>
     <cc:Agent>
      <dc:title>Matplotlib v3.7.1, https://matplotlib.org/</dc:title>
     </cc:Agent>
    </dc:creator>
   </cc:Work>
  </rdf:RDF>
 </metadata>
 <defs>
  <style type="text/css">*{stroke-linejoin: round; stroke-linecap: butt}</style>
 </defs>
 <g id="figure_1">
  <g id="patch_1">
   <path d="M 0 214.608281 
L 306.500122 214.608281 
L 306.500122 0 
L 0 0 
z
" style="fill: #ffffff"/>
  </g>
  <g id="axes_1">
   <g id="patch_2">
    <path d="M 43.493067 176.340937 
L 187.420903 176.340937 
L 187.420903 31.917656 
L 43.493067 31.917656 
z
" style="fill: #eaeaf2"/>
   </g>
   <g id="matplotlib.axis_1">
    <g id="xtick_1">
     <g id="line2d_1">
      <path d="M 43.493067 176.340937 
L 43.493067 31.917656 
" clip-path="url(#p4c39afcd15)" style="fill: none; stroke: #ffffff; stroke-linecap: round"/>
     </g>
     <g id="text_1">
      <text style="fill: #262626; font: 11px 'Arial', 'DejaVu Sans', 'Liberation Sans', 'Bitstream Vera Sans', sans-serif; text-anchor: middle" x="43.493067" y="193.714531" transform="rotate(-0 43.493067 193.714531)">0</text>
     </g>
    </g>
    <g id="xtick_2">
     <g id="line2d_2">
      <path d="M 79.475026 176.340937 
L 79.475026 31.917656 
" clip-path="url(#p4c39afcd15)" style="fill: none; stroke: #ffffff; stroke-linecap: round"/>
     </g>
     <g id="text_2">
      <text style="fill: #262626; font: 11px 'Arial', 'DejaVu Sans', 'Liberation Sans', 'Bitstream Vera Sans', sans-serif; text-anchor: middle" x="79.475026" y="193.714531" transform="rotate(-0 79.475026 193.714531)">6</text>
     </g>
    </g>
    <g id="xtick_3">
     <g id="line2d_3">
      <path d="M 115.456985 176.340937 
L 115.456985 31.917656 
" clip-path="url(#p4c39afcd15)" style="fill: none; stroke: #ffffff; stroke-linecap: round"/>
     </g>
     <g id="text_3">
      <text style="fill: #262626; font: 11px 'Arial', 'DejaVu Sans', 'Liberation Sans', 'Bitstream Vera Sans', sans-serif; text-anchor: middle" x="115.456985" y="193.714531" transform="rotate(-0 115.456985 193.714531)">12</text>
     </g>
    </g>
    <g id="xtick_4">
     <g id="line2d_4">
      <path d="M 151.438944 176.340937 
L 151.438944 31.917656 
" clip-path="url(#p4c39afcd15)" style="fill: none; stroke: #ffffff; stroke-linecap: round"/>
     </g>
     <g id="text_4">
      <text style="fill: #262626; font: 11px 'Arial', 'DejaVu Sans', 'Liberation Sans', 'Bitstream Vera Sans', sans-serif; text-anchor: middle" x="151.438944" y="193.714531" transform="rotate(-0 151.438944 193.714531)">18</text>
     </g>
    </g>
    <g id="xtick_5">
     <g id="line2d_5">
      <path d="M 187.420903 176.340937 
L 187.420903 31.917656 
" clip-path="url(#p4c39afcd15)" style="fill: none; stroke: #ffffff; stroke-linecap: round"/>
     </g>
     <g id="text_5">
      <text style="fill: #262626; font: 11px 'Arial', 'DejaVu Sans', 'Liberation Sans', 'Bitstream Vera Sans', sans-serif; text-anchor: middle" x="187.420903" y="193.714531" transform="rotate(-0 187.420903 193.714531)">24</text>
     </g>
    </g>
    <g id="text_6">
     <text style="fill: #262626; font: 8px 'Arial', 'DejaVu Sans', 'Liberation Sans', 'Bitstream Vera Sans', sans-serif; text-anchor: middle" x="115.456985" y="205.724531" transform="rotate(-0 115.456985 205.724531)">CPU Time (CPU Hour)</text>
    </g>
   </g>
   <g id="matplotlib.axis_2">
    <g id="ytick_1">
     <g id="line2d_6">
      <path d="M 43.493067 161.400921 
L 187.420903 161.400921 
" clip-path="url(#p4c39afcd15)" style="fill: none; stroke: #ffffff; stroke-linecap: round"/>
     </g>
     <g id="text_7">
      <text style="fill: #262626; font: 11px 'Arial', 'DejaVu Sans', 'Liberation Sans', 'Bitstream Vera Sans', sans-serif; text-anchor: end" x="33.993067" y="165.337718" transform="rotate(-0 33.993067 165.337718)">2.5</text>
     </g>
    </g>
    <g id="ytick_2">
     <g id="line2d_7">
      <path d="M 43.493067 133.533073 
L 187.420903 133.533073 
" clip-path="url(#p4c39afcd15)" style="fill: none; stroke: #ffffff; stroke-linecap: round"/>
     </g>
     <g id="text_8">
      <text style="fill: #262626; font: 11px 'Arial', 'DejaVu Sans', 'Liberation Sans', 'Bitstream Vera Sans', sans-serif; text-anchor: end" x="33.993067" y="137.46987" transform="rotate(-0 33.993067 137.46987)">5.0</text>
     </g>
    </g>
    <g id="ytick_3">
     <g id="line2d_8">
      <path d="M 43.493067 105.665226 
L 187.420903 105.665226 
" clip-path="url(#p4c39afcd15)" style="fill: none; stroke: #ffffff; stroke-linecap: round"/>
     </g>
     <g id="text_9">
      <text style="fill: #262626; font: 11px 'Arial', 'DejaVu Sans', 'Liberation Sans', 'Bitstream Vera Sans', sans-serif; text-anchor: end" x="33.993067" y="109.602023" transform="rotate(-0 33.993067 109.602023)">7.5</text>
     </g>
    </g>
    <g id="ytick_4">
     <g id="line2d_9">
      <path d="M 43.493067 77.797379 
L 187.420903 77.797379 
" clip-path="url(#p4c39afcd15)" style="fill: none; stroke: #ffffff; stroke-linecap: round"/>
     </g>
     <g id="text_10">
      <text style="fill: #262626; font: 11px 'Arial', 'DejaVu Sans', 'Liberation Sans', 'Bitstream Vera Sans', sans-serif; text-anchor: end" x="33.993067" y="81.734176" transform="rotate(-0 33.993067 81.734176)">10.0</text>
     </g>
    </g>
    <g id="ytick_5">
     <g id="line2d_10">
      <path d="M 43.493067 49.929532 
L 187.420903 49.929532 
" clip-path="url(#p4c39afcd15)" style="fill: none; stroke: #ffffff; stroke-linecap: round"/>
     </g>
     <g id="text_11">
      <text style="fill: #262626; font: 11px 'Arial', 'DejaVu Sans', 'Liberation Sans', 'Bitstream Vera Sans', sans-serif; text-anchor: end" x="33.993067" y="53.866329" transform="rotate(-0 33.993067 53.866329)">12.5</text>
     </g>
    </g>
    <g id="text_12">
     <text style="fill: #262626; font: 8px 'Arial', 'DejaVu Sans', 'Liberation Sans', 'Bitstream Vera Sans', sans-serif; text-anchor: middle" x="13.02375" y="104.129297" transform="rotate(-90 13.02375 104.129297)">Bitmap Density (\%)</text>
    </g>
   </g>
   <g id="PolyCollection_1">
    <defs>
     <path id="m5abf244199" d="M 44.992315 -50.496097 
L 44.992315 -46.345856 
L 46.491564 -54.068025 
L 47.990812 -68.849006 
L 49.49006 -86.147347 
L 50.989309 -91.011973 
L 52.488557 -91.930469 
L 53.987805 -121.560468 
L 55.487054 -128.006949 
L 56.986302 -128.245077 
L 58.48555 -129.299647 
L 59.984798 -129.945996 
L 61.484047 -130.201133 
L 62.983295 -130.490289 
L 64.482543 -130.89851 
L 65.981792 -133.279796 
L 67.48104 -133.841099 
L 68.980288 -134.351374 
L 70.479536 -134.487448 
L 71.978785 -134.572494 
L 73.478033 -135.201833 
L 74.977281 -136.171357 
L 76.47653 -136.205375 
L 77.975778 -136.205375 
L 79.475026 -136.205375 
L 80.974274 -136.205375 
L 82.473523 -136.290421 
L 83.972771 -136.290421 
L 85.472019 -136.290421 
L 86.971268 -136.290421 
L 88.470516 -138.059376 
L 89.969764 -138.059376 
L 91.469013 -138.535634 
L 92.968261 -138.535634 
L 94.467509 -139.318056 
L 95.966757 -139.811322 
L 97.466006 -139.811322 
L 98.965254 -139.811322 
L 100.464502 -140.423653 
L 101.963751 -140.423653 
L 103.462999 -142.056535 
L 104.962247 -144.23371 
L 106.461495 -145.441362 
L 107.960744 -146.257803 
L 109.459992 -146.666024 
L 110.95924 -146.666024 
L 112.458489 -147.431437 
L 113.957737 -148.877217 
L 115.456985 -149.064318 
L 116.956233 -149.710667 
L 118.455482 -149.999824 
L 119.95473 -150.561127 
L 121.453978 -152.840357 
L 122.953227 -152.908394 
L 124.452475 -152.99344 
L 125.951723 -153.367642 
L 127.450972 -153.367642 
L 128.95022 -154.762395 
L 130.449468 -155.034542 
L 131.948716 -155.255662 
L 133.447965 -155.6979 
L 134.947213 -156.089112 
L 136.446461 -156.293222 
L 137.94571 -156.310231 
L 139.444958 -156.32724 
L 140.944206 -156.446304 
L 142.443454 -156.463314 
L 143.942703 -156.53135 
L 145.441951 -157.058635 
L 146.941199 -157.602929 
L 148.440448 -157.960122 
L 149.939696 -158.096195 
L 151.438944 -158.147223 
L 152.938193 -158.487406 
L 154.437441 -158.521425 
L 155.936689 -158.589462 
L 157.435937 -158.657498 
L 158.935186 -158.776563 
L 160.434434 -158.776563 
L 161.933682 -158.776563 
L 163.432931 -158.776563 
L 164.932179 -158.810581 
L 166.431427 -158.844599 
L 167.930675 -158.844599 
L 169.429924 -158.861609 
L 170.929172 -159.0317 
L 172.42842 -159.286838 
L 173.927669 -159.388893 
L 175.426917 -159.593003 
L 176.926165 -159.593003 
L 178.425413 -159.593003 
L 179.924662 -159.593003 
L 181.42391 -159.610013 
L 182.923158 -159.627022 
L 184.422407 -159.627022 
L 185.921655 -159.66104 
L 187.420903 -159.678049 
L 188.920152 -159.712068 
L 190.4194 -159.729077 
L 191.918648 -159.729077 
L 191.918648 -176.12593 
L 191.918648 -176.12593 
L 190.4194 -175.71771 
L 188.920152 -175.666682 
L 187.420903 -175.615655 
L 185.921655 -175.615655 
L 184.422407 -175.615655 
L 182.923158 -175.29248 
L 181.42391 -174.45903 
L 179.924662 -174.425012 
L 178.425413 -173.880718 
L 176.926165 -173.21736 
L 175.426917 -173.098296 
L 173.927669 -173.01325 
L 172.42842 -171.788588 
L 170.929172 -171.771579 
L 169.429924 -170.802056 
L 167.930675 -170.802056 
L 166.431427 -170.802056 
L 164.932179 -170.802056 
L 163.432931 -170.785047 
L 161.933682 -170.700001 
L 160.434434 -170.700001 
L 158.935186 -170.700001 
L 157.435937 -170.700001 
L 155.936689 -170.665982 
L 154.437441 -170.427854 
L 152.938193 -170.393835 
L 151.438944 -170.376826 
L 149.939696 -169.66244 
L 148.440448 -169.628422 
L 146.941199 -169.628422 
L 145.441951 -169.475339 
L 143.942703 -169.407303 
L 142.443454 -169.407303 
L 140.944206 -169.356275 
L 139.444958 -169.186183 
L 137.94571 -168.863009 
L 136.446461 -168.846 
L 134.947213 -168.488807 
L 133.447965 -168.488807 
L 131.948716 -168.437779 
L 130.449468 -168.386752 
L 128.95022 -168.352733 
L 127.450972 -168.182641 
L 125.951723 -168.165632 
L 124.452475 -168.165632 
L 122.953227 -167.944513 
L 121.453978 -167.893485 
L 119.95473 -167.740403 
L 118.455482 -167.298164 
L 116.956233 -166.889943 
L 115.456985 -165.08697 
L 113.957737 -163.82829 
L 112.458489 -163.539134 
L 110.95924 -163.113905 
L 109.459992 -161.991298 
L 107.960744 -161.668124 
L 106.461495 -161.651115 
L 104.962247 -161.651115 
L 103.462999 -161.651115 
L 101.963751 -161.651115 
L 100.464502 -161.600087 
L 98.965254 -161.53205 
L 97.466006 -161.378968 
L 95.966757 -160.953738 
L 94.467509 -159.235811 
L 92.968261 -158.436379 
L 91.469013 -157.432837 
L 89.969764 -156.565369 
L 88.470516 -153.911936 
L 86.971268 -152.823348 
L 85.472019 -152.517183 
L 83.972771 -151.462613 
L 82.473523 -145.390335 
L 80.974274 -145.152206 
L 79.475026 -144.556885 
L 77.975778 -144.403802 
L 76.47653 -143.842499 
L 74.977281 -142.855966 
L 73.478033 -142.617838 
L 71.978785 -142.617838 
L 70.479536 -142.56681 
L 68.980288 -142.413728 
L 67.48104 -142.379709 
L 65.981792 -142.209617 
L 64.482543 -142.209617 
L 62.983295 -140.984956 
L 61.484047 -138.416569 
L 59.984798 -136.069302 
L 58.48555 -133.432878 
L 56.986302 -129.333665 
L 55.487054 -128.109004 
L 53.987805 -127.921903 
L 52.488557 -126.952379 
L 50.989309 -126.050892 
L 49.49006 -123.873717 
L 47.990812 -116.406685 
L 46.491564 -65.957445 
L 44.992315 -50.496097 
z
" style="stroke: #c49c94; stroke-opacity: 0.2"/>
    </defs>
    <g clip-path="url(#p4c39afcd15)">
     <use xlink:href="#m5abf244199" x="0" y="214.608281" style="fill: #c49c94; fill-opacity: 0.2; stroke: #c49c94; stroke-opacity: 0.2"/>
    </g>
   </g>
   <g id="PolyCollection_2"/>
   <g id="PolyCollection_3"/>
   <g id="PolyCollection_4">
    <defs>
     <path id="m8b4fe8e24c" d="M 44.992315 -47.145287 
L 44.992315 -46.89015 
L 46.491564 -47.077251 
L 47.990812 -47.825655 
L 49.49006 -47.825655 
L 50.989309 -47.825655 
L 52.488557 -47.825655 
L 53.987805 -47.825655 
L 55.487054 -47.825655 
L 56.986302 -47.825655 
L 58.48555 -47.825655 
L 59.984798 -47.825655 
L 61.484047 -47.825655 
L 62.983295 -47.825655 
L 64.482543 -47.825655 
L 65.981792 -47.825655 
L 67.48104 -47.825655 
L 68.980288 -47.825655 
L 70.479536 -47.825655 
L 71.978785 -47.825655 
L 73.478033 -47.825655 
L 74.977281 -47.825655 
L 76.47653 -47.825655 
L 77.975778 -47.825655 
L 79.475026 -47.825655 
L 80.974274 -47.825655 
L 82.473523 -47.825655 
L 83.972771 -47.825655 
L 85.472019 -47.825655 
L 86.971268 -47.825655 
L 88.470516 -47.825655 
L 89.969764 -47.825655 
L 91.469013 -47.825655 
L 92.968261 -47.825655 
L 94.467509 -47.825655 
L 95.966757 -47.825655 
L 97.466006 -47.825655 
L 98.965254 -47.825655 
L 100.464502 -47.825655 
L 101.963751 -72.897192 
L 103.462999 -87.865274 
L 104.962247 -91.91346 
L 106.461495 -94.039608 
L 107.960744 -95.791554 
L 109.459992 -98.036766 
L 110.95924 -99.805721 
L 112.458489 -100.128896 
L 113.957737 -100.264969 
L 115.456985 -102.850365 
L 116.956233 -103.003448 
L 118.455482 -103.020457 
L 119.95473 -103.088494 
L 121.453978 -103.58176 
L 122.953227 -103.598769 
L 124.452475 -103.80288 
L 125.951723 -103.80288 
L 127.450972 -103.836898 
L 128.95022 -104.2111 
L 130.449468 -104.262128 
L 131.948716 -104.347174 
L 133.447965 -104.41521 
L 134.947213 -104.534275 
L 136.446461 -105.316697 
L 137.94571 -111.320939 
L 139.444958 -111.457012 
L 140.944206 -111.50804 
L 142.443454 -111.542058 
L 143.942703 -111.559068 
L 145.441951 -111.593086 
L 146.941199 -111.627104 
L 148.440448 -111.644113 
L 149.939696 -111.644113 
L 151.438944 -111.661123 
L 152.938193 -111.746169 
L 154.437441 -111.746169 
L 155.936689 -111.746169 
L 157.435937 -111.763178 
L 158.935186 -111.780187 
L 160.434434 -111.780187 
L 161.933682 -111.780187 
L 163.432931 -111.780187 
L 164.932179 -111.780187 
L 166.431427 -111.882242 
L 167.930675 -111.882242 
L 169.429924 -111.882242 
L 170.929172 -111.91626 
L 172.42842 -112.069343 
L 173.927669 -112.103361 
L 175.426917 -126.084911 
L 176.926165 -126.084911 
L 178.425413 -126.084911 
L 178.425413 -145.050151 
L 178.425413 -145.050151 
L 176.926165 -145.016133 
L 175.426917 -145.016133 
L 173.927669 -145.016133 
L 172.42842 -144.999124 
L 170.929172 -144.914078 
L 169.429924 -144.86305 
L 167.930675 -144.829032 
L 166.431427 -144.812022 
L 164.932179 -144.65894 
L 163.432931 -144.624921 
L 161.933682 -144.488848 
L 160.434434 -144.199692 
L 158.935186 -144.080628 
L 157.435937 -144.046609 
L 155.936689 -143.723435 
L 154.437441 -143.723435 
L 152.938193 -143.519324 
L 151.438944 -143.485306 
L 149.939696 -143.40026 
L 148.440448 -143.349233 
L 146.941199 -143.349233 
L 145.441951 -143.349233 
L 143.942703 -143.349233 
L 142.443454 -143.162132 
L 140.944206 -143.111104 
L 139.444958 -142.99204 
L 137.94571 -142.294663 
L 136.446461 -141.886443 
L 134.947213 -141.818406 
L 133.447965 -141.784388 
L 131.948716 -141.257103 
L 130.449468 -141.12103 
L 128.95022 -140.814864 
L 127.450972 -140.6958 
L 125.951723 -140.338607 
L 124.452475 -139.777304 
L 122.953227 -139.369084 
L 121.453978 -139.062918 
L 119.95473 -139.062918 
L 118.455482 -139.062918 
L 116.956233 -138.977872 
L 115.456985 -138.841799 
L 113.957737 -138.671707 
L 112.458489 -138.654698 
L 110.95924 -137.651156 
L 109.459992 -137.617138 
L 107.960744 -137.004807 
L 106.461495 -136.919761 
L 104.962247 -136.375467 
L 103.462999 -136.273412 
L 101.963751 -131.340749 
L 100.464502 -131.323739 
L 98.965254 -131.323739 
L 97.466006 -131.017574 
L 95.966757 -131.017574 
L 94.467509 -130.796455 
L 92.968261 -129.333665 
L 91.469013 -129.299647 
L 89.969764 -129.265628 
L 88.470516 -128.857408 
L 86.971268 -128.721334 
L 85.472019 -128.432178 
L 83.972771 -115.743327 
L 82.473523 -115.692299 
L 80.974274 -113.430078 
L 79.475026 -113.345032 
L 77.975778 -106.218184 
L 76.47653 -106.218184 
L 74.977281 -106.218184 
L 73.478033 -103.17354 
L 71.978785 -102.833356 
L 70.479536 -102.289062 
L 68.980288 -102.13598 
L 67.48104 -101.183465 
L 65.981792 -100.622162 
L 64.482543 -97.594527 
L 62.983295 -93.920544 
L 61.484047 -93.427277 
L 59.984798 -93.325222 
L 58.48555 -91.743368 
L 56.986302 -47.825655 
L 55.487054 -47.825655 
L 53.987805 -47.825655 
L 52.488557 -47.825655 
L 50.989309 -47.825655 
L 49.49006 -47.825655 
L 47.990812 -47.825655 
L 46.491564 -47.825655 
L 44.992315 -47.145287 
z
" style="stroke: #ff9896; stroke-opacity: 0.2"/>
    </defs>
    <g clip-path="url(#p4c39afcd15)">
     <use xlink:href="#m8b4fe8e24c" x="0" y="214.608281" style="fill: #ff9896; fill-opacity: 0.2; stroke: #ff9896; stroke-opacity: 0.2"/>
    </g>
   </g>
   <g id="PolyCollection_5"/>
   <g id="PolyCollection_6"/>
   <g id="PolyCollection_7">
    <defs>
     <path id="m64423469dd" d="M 44.992315 -45.767543 
L 44.992315 -44.832038 
L 46.491564 -44.832038 
L 47.990812 -44.951103 
L 49.49006 -44.951103 
L 50.989309 -44.951103 
L 52.488557 -44.951103 
L 53.987805 -44.951103 
L 55.487054 -44.951103 
L 56.986302 -44.951103 
L 58.48555 -44.951103 
L 59.984798 -44.951103 
L 61.484047 -44.951103 
L 62.983295 -44.951103 
L 64.482543 -44.951103 
L 65.981792 -44.951103 
L 67.48104 -44.951103 
L 68.980288 -44.951103 
L 70.479536 -44.951103 
L 71.978785 -44.951103 
L 73.478033 -44.951103 
L 74.977281 -44.951103 
L 76.47653 -44.951103 
L 77.975778 -44.951103 
L 79.475026 -44.951103 
L 80.974274 -44.951103 
L 82.473523 -44.951103 
L 83.972771 -44.951103 
L 85.472019 -44.951103 
L 86.971268 -44.951103 
L 88.470516 -44.951103 
L 89.969764 -44.951103 
L 91.469013 -44.951103 
L 92.968261 -44.951103 
L 94.467509 -44.951103 
L 95.966757 -44.968112 
L 97.466006 -44.968112 
L 98.965254 -44.968112 
L 100.464502 -44.968112 
L 101.963751 -44.968112 
L 103.462999 -44.968112 
L 104.962247 -44.968112 
L 106.461495 -44.968112 
L 107.960744 -44.968112 
L 109.459992 -44.968112 
L 110.95924 -44.968112 
L 112.458489 -44.968112 
L 113.957737 -44.968112 
L 115.456985 -44.968112 
L 116.956233 -44.968112 
L 118.455482 -44.968112 
L 119.95473 -44.968112 
L 121.453978 -44.968112 
L 122.953227 -44.968112 
L 124.452475 -44.968112 
L 125.951723 -44.968112 
L 127.450972 -44.968112 
L 128.95022 -44.968112 
L 130.449468 -44.968112 
L 131.948716 -44.968112 
L 133.447965 -44.968112 
L 134.947213 -44.968112 
L 136.446461 -44.968112 
L 137.94571 -44.968112 
L 139.444958 -44.968112 
L 140.944206 -44.968112 
L 142.443454 -44.968112 
L 143.942703 -44.968112 
L 145.441951 -44.968112 
L 146.941199 -44.968112 
L 148.440448 -44.968112 
L 149.939696 -44.968112 
L 151.438944 -44.968112 
L 152.938193 -44.968112 
L 154.437441 -44.968112 
L 155.936689 -44.968112 
L 157.435937 -44.968112 
L 158.935186 -44.968112 
L 160.434434 -44.968112 
L 161.933682 -44.968112 
L 163.432931 -44.968112 
L 164.932179 -44.968112 
L 166.431427 -44.968112 
L 167.930675 -45.495397 
L 169.429924 -45.495397 
L 170.929172 -45.495397 
L 172.42842 -45.495397 
L 173.927669 -45.495397 
L 175.426917 -46.226791 
L 176.926165 -46.498938 
L 178.425413 -46.498938 
L 179.924662 -46.498938 
L 181.42391 -46.498938 
L 182.923158 -46.498938 
L 184.422407 -46.498938 
L 185.921655 -46.498938 
L 187.420903 -46.498938 
L 187.420903 -141.10402 
L 187.420903 -141.10402 
L 185.921655 -140.678791 
L 184.422407 -139.964405 
L 182.923158 -139.964405 
L 181.42391 -139.896368 
L 179.924662 -139.624221 
L 178.425413 -139.096937 
L 176.926165 -138.756753 
L 175.426917 -138.756753 
L 173.927669 -138.60367 
L 172.42842 -138.586661 
L 170.929172 -138.365542 
L 169.429924 -138.348533 
L 167.930675 -137.99134 
L 166.431427 -137.719193 
L 164.932179 -136.800697 
L 163.432931 -136.800697 
L 161.933682 -135.780146 
L 160.434434 -135.286879 
L 158.935186 -134.164273 
L 157.435937 -120.250761 
L 155.936689 -119.961605 
L 154.437441 -119.961605 
L 152.938193 -119.927586 
L 151.438944 -119.927586 
L 149.939696 -119.859549 
L 148.440448 -119.757494 
L 146.941199 -119.672448 
L 145.441951 -119.315256 
L 143.942703 -118.362741 
L 142.443454 -118.328723 
L 140.944206 -118.294704 
L 139.444958 -118.277695 
L 137.94571 -118.260686 
L 136.446461 -118.260686 
L 134.947213 -118.073585 
L 133.447965 -118.073585 
L 131.948716 -118.022558 
L 130.449468 -118.022558 
L 128.95022 -117.835456 
L 127.450972 -117.648355 
L 125.951723 -117.614337 
L 124.452475 -117.614337 
L 122.953227 -117.580319 
L 121.453978 -117.308172 
L 119.95473 -117.274153 
L 118.455482 -117.206117 
L 116.956233 -117.172098 
L 115.456985 -117.172098 
L 113.957737 -116.984997 
L 112.458489 -116.865933 
L 110.95924 -116.746869 
L 109.459992 -116.71285 
L 107.960744 -116.559768 
L 106.461495 -116.032483 
L 104.962247 -115.947437 
L 103.462999 -115.930428 
L 101.963751 -115.590244 
L 100.464502 -115.556226 
L 98.965254 -115.250061 
L 97.466006 -115.04595 
L 95.966757 -114.858849 
L 94.467509 -114.450629 
L 92.968261 -112.715692 
L 91.469013 -112.273453 
L 89.969764 -112.222426 
L 88.470516 -109.500956 
L 86.971268 -109.364883 
L 85.472019 -108.956662 
L 83.972771 -106.575377 
L 82.473523 -105.384734 
L 80.974274 -105.299688 
L 79.475026 -105.010532 
L 77.975778 -105.010532 
L 76.47653 -103.921944 
L 74.977281 -103.870916 
L 73.478033 -101.795796 
L 71.978785 -101.744768 
L 70.479536 -101.557667 
L 68.980288 -101.438603 
L 67.48104 -94.073626 
L 65.981792 -94.073626 
L 64.482543 -93.648397 
L 62.983295 -91.539258 
L 61.484047 -88.528632 
L 59.984798 -87.491072 
L 58.48555 -82.337289 
L 56.986302 -49.59461 
L 55.487054 -47.009214 
L 53.987805 -47.009214 
L 52.488557 -46.992205 
L 50.989309 -46.447911 
L 49.49006 -46.243801 
L 47.990812 -46.243801 
L 46.491564 -46.243801 
L 44.992315 -45.767543 
z
" style="stroke: #2ca02c; stroke-opacity: 0.2"/>
    </defs>
    <g clip-path="url(#p4c39afcd15)">
     <use xlink:href="#m64423469dd" x="0" y="214.608281" style="fill: #2ca02c; fill-opacity: 0.2; stroke: #2ca02c; stroke-opacity: 0.2"/>
    </g>
   </g>
   <g id="PolyCollection_8">
    <defs>
     <path id="m0e0aba9cc7" d="M 44.992315 -47.196315 
L 44.992315 -47.09426 
L 46.491564 -47.09426 
L 47.990812 -47.09426 
L 49.49006 -47.09426 
L 50.989309 -47.09426 
L 52.488557 -47.09426 
L 53.987805 -47.09426 
L 55.487054 -47.09426 
L 56.986302 -82.983638 
L 58.48555 -89.549183 
L 59.984798 -89.770303 
L 61.484047 -89.770303 
L 62.983295 -89.770303 
L 64.482543 -89.770303 
L 65.981792 -89.770303 
L 67.48104 -89.770303 
L 68.980288 -89.770303 
L 70.479536 -89.770303 
L 71.978785 -89.770303 
L 73.478033 -89.957404 
L 74.977281 -89.957404 
L 76.47653 -90.02544 
L 77.975778 -90.02544 
L 79.475026 -90.02544 
L 80.974274 -90.02544 
L 82.473523 -90.02544 
L 83.972771 -90.229551 
L 85.472019 -90.229551 
L 86.971268 -90.229551 
L 88.470516 -90.229551 
L 89.969764 -90.229551 
L 91.469013 -90.229551 
L 92.968261 -90.229551 
L 94.467509 -90.229551 
L 95.966757 -90.229551 
L 97.466006 -90.229551 
L 98.965254 -90.229551 
L 100.464502 -91.964487 
L 101.963751 -94.788012 
L 103.462999 -95.723517 
L 104.962247 -95.723517 
L 106.461495 -95.723517 
L 107.960744 -95.723517 
L 109.459992 -95.723517 
L 110.95924 -95.723517 
L 112.458489 -95.723517 
L 113.957737 -95.723517 
L 115.456985 -95.723517 
L 116.956233 -95.723517 
L 118.455482 -95.723517 
L 119.95473 -95.723517 
L 121.453978 -95.757536 
L 122.953227 -95.842581 
L 124.452475 -95.842581 
L 125.951723 -95.842581 
L 127.450972 -95.842581 
L 128.95022 -95.842581 
L 130.449468 -95.842581 
L 131.948716 -95.842581 
L 133.447965 -95.842581 
L 134.947213 -96.982197 
L 136.446461 -96.982197 
L 137.94571 -96.982197 
L 139.444958 -96.982197 
L 140.944206 -96.982197 
L 142.443454 -96.982197 
L 143.942703 -96.982197 
L 145.441951 -96.982197 
L 146.941199 -96.982197 
L 148.440448 -96.982197 
L 149.939696 -96.982197 
L 151.438944 -96.982197 
L 152.938193 -96.982197 
L 154.437441 -97.050234 
L 155.936689 -97.050234 
L 157.435937 -97.050234 
L 158.935186 -97.050234 
L 160.434434 -97.050234 
L 161.933682 -97.050234 
L 163.432931 -97.050234 
L 164.932179 -97.050234 
L 166.431427 -97.050234 
L 167.930675 -97.050234 
L 169.429924 -97.050234 
L 170.929172 -97.050234 
L 172.42842 -97.050234 
L 173.927669 -97.458454 
L 175.426917 -97.917702 
L 176.926165 -97.917702 
L 178.425413 -97.917702 
L 179.924662 -97.917702 
L 181.42391 -97.917702 
L 182.923158 -97.917702 
L 184.422407 -97.917702 
L 185.921655 -97.917702 
L 187.420903 -97.917702 
L 187.420903 -135.252861 
L 187.420903 -135.252861 
L 185.921655 -135.099778 
L 184.422407 -134.810622 
L 182.923158 -134.759595 
L 181.42391 -134.300347 
L 179.924662 -134.079227 
L 178.425413 -133.841099 
L 176.926165 -133.568952 
L 175.426917 -133.534933 
L 173.927669 -133.415869 
L 172.42842 -133.39886 
L 170.929172 -133.39886 
L 169.429924 -133.143722 
L 167.930675 -132.854566 
L 166.431427 -132.854566 
L 164.932179 -132.174199 
L 163.432931 -132.15719 
L 161.933682 -132.123171 
L 160.434434 -116.185566 
L 158.935186 -115.998465 
L 157.435937 -115.947437 
L 155.936689 -115.845382 
L 154.437441 -115.760336 
L 152.938193 -115.760336 
L 151.438944 -115.760336 
L 149.939696 -115.692299 
L 148.440448 -115.573235 
L 146.941199 -115.522207 
L 145.441951 -115.437162 
L 143.942703 -114.603712 
L 142.443454 -114.484647 
L 140.944206 -114.229509 
L 139.444958 -114.229509 
L 137.94571 -114.2125 
L 136.446461 -113.923344 
L 134.947213 -113.923344 
L 133.447965 -113.923344 
L 131.948716 -113.923344 
L 130.449468 -113.923344 
L 128.95022 -113.855307 
L 127.450972 -113.821289 
L 125.951723 -113.821289 
L 124.452475 -113.821289 
L 122.953227 -113.821289 
L 121.453978 -113.787271 
L 119.95473 -113.753252 
L 118.455482 -113.617179 
L 116.956233 -113.549142 
L 115.456985 -113.549142 
L 113.957737 -113.549142 
L 112.458489 -113.532133 
L 110.95924 -113.37905 
L 109.459992 -113.17494 
L 107.960744 -112.460554 
L 106.461495 -112.460554 
L 104.962247 -112.460554 
L 103.462999 -112.460554 
L 101.963751 -112.426536 
L 100.464502 -112.426536 
L 98.965254 -112.375508 
L 97.466006 -110.963746 
L 95.966757 -109.551984 
L 94.467509 -109.551984 
L 92.968261 -109.551984 
L 91.469013 -109.551984 
L 89.969764 -109.313855 
L 88.470516 -109.262828 
L 86.971268 -109.262828 
L 85.472019 -108.633488 
L 83.972771 -108.633488 
L 82.473523 -108.565451 
L 80.974274 -107.902093 
L 79.475026 -106.932569 
L 77.975778 -106.881542 
L 76.47653 -104.891467 
L 74.977281 -104.585302 
L 73.478033 -104.432219 
L 71.978785 -104.398201 
L 70.479536 -104.398201 
L 68.980288 -104.398201 
L 67.48104 -103.326622 
L 65.981792 -101.30253 
L 64.482543 -101.183465 
L 62.983295 -100.826272 
L 61.484047 -96.931169 
L 59.984798 -95.621462 
L 58.48555 -95.24726 
L 56.986302 -95.196232 
L 55.487054 -95.196232 
L 53.987805 -94.192691 
L 52.488557 -93.954562 
L 50.989309 -92.389717 
L 49.49006 -86.606594 
L 47.990812 -82.796537 
L 46.491564 -47.230333 
L 44.992315 -47.196315 
z
" style="stroke: #98df8a; stroke-opacity: 0.2"/>
    </defs>
    <g clip-path="url(#p4c39afcd15)">
     <use xlink:href="#m0e0aba9cc7" x="0" y="214.608281" style="fill: #98df8a; fill-opacity: 0.2; stroke: #98df8a; stroke-opacity: 0.2"/>
    </g>
   </g>
   <g id="PolyCollection_9"/>
   <g id="PolyCollection_10"/>
   <g id="line2d_11">
    <path d="M 44.992315 166.187305 
L 46.491564 154.595546 
L 47.990812 121.980436 
L 49.49006 109.59775 
L 50.989309 106.076848 
L 52.488557 105.166857 
L 53.987805 89.867096 
L 55.487054 86.550305 
L 56.986302 85.81891 
L 58.48555 83.242019 
L 59.984798 81.600633 
L 61.484047 80.29943 
L 62.983295 78.870658 
L 64.482543 78.054218 
L 65.981792 76.863575 
L 67.48104 76.497877 
L 68.980288 76.22573 
L 70.479536 76.081152 
L 71.978785 76.013116 
L 73.478033 75.698446 
L 74.977281 75.09462 
L 76.47653 74.584344 
L 77.975778 74.303693 
L 79.475026 74.227151 
L 80.974274 73.929491 
L 82.473523 73.767903 
L 83.972771 70.731764 
L 85.472019 70.204479 
L 86.971268 70.051397 
L 88.470516 68.622625 
L 89.969764 67.295909 
L 91.469013 66.624046 
L 92.968261 66.122275 
L 94.467509 65.331348 
L 95.966757 64.225751 
L 97.466006 64.013136 
L 98.965254 63.936595 
L 100.464502 63.596411 
L 101.963751 63.570897 
L 103.462999 62.754457 
L 104.962247 61.665869 
L 106.461495 61.062043 
L 107.960744 60.645318 
L 109.459992 60.27962 
L 110.95924 59.718317 
L 112.458489 59.122996 
L 113.957737 58.255527 
L 115.456985 57.532637 
L 116.956233 56.307976 
L 118.455482 55.959288 
L 119.95473 55.457517 
L 121.453978 54.24136 
L 122.953227 54.181828 
L 124.452475 54.028745 
L 125.951723 53.841644 
L 127.450972 53.833139 
L 128.95022 53.050717 
L 130.449468 52.897634 
L 131.948716 52.761561 
L 133.447965 52.514928 
L 134.947213 52.319322 
L 136.446461 52.038671 
L 137.94571 52.021661 
L 139.444958 51.85157 
L 140.944206 51.706991 
L 142.443454 51.672973 
L 143.942703 51.638955 
L 145.441951 51.341294 
L 146.941199 50.992606 
L 148.440448 50.814009 
L 149.939696 50.728963 
L 151.438944 50.346257 
L 152.938193 50.16766 
L 154.437441 50.133642 
L 155.936689 49.980559 
L 157.435937 49.929532 
L 158.935186 49.87 
L 160.434434 49.87 
L 161.933682 49.87 
L 163.432931 49.827477 
L 164.932179 49.801963 
L 166.431427 49.784954 
L 167.930675 49.784954 
L 169.429924 49.776449 
L 170.929172 49.206641 
L 172.42842 49.070568 
L 173.927669 48.40721 
L 175.426917 48.262632 
L 176.926165 48.2031 
L 178.425413 47.87142 
L 179.924662 47.599274 
L 181.42391 47.57376 
L 182.923158 47.14853 
L 184.422407 46.986943 
L 185.921655 46.969934 
L 187.420903 46.961429 
L 188.920152 46.918906 
L 190.4194 46.884888 
L 191.918648 46.680778 
" clip-path="url(#p4c39afcd15)" style="fill: none; stroke: #c49c94; stroke-width: 3; stroke-linecap: round"/>
   </g>
   <g id="line2d_12"/>
   <g id="line2d_13">
    <path d="M 44.992315 167.360939 
L 46.491564 167.360939 
L 47.990812 166.646553 
L 49.49006 166.646553 
L 50.989309 166.646553 
L 52.488557 166.646553 
L 53.987805 136.183104 
L 55.487054 127.134218 
L 56.986302 125.382272 
L 58.48555 124.871997 
L 59.984798 123.902473 
L 61.484047 122.915941 
L 62.983295 122.762858 
L 64.482543 122.031463 
L 65.981792 121.521188 
L 67.48104 121.351096 
L 68.980288 118.170378 
L 70.479536 118.102342 
L 71.978785 117.558048 
L 73.478033 117.558048 
L 74.977281 116.826653 
L 76.47653 116.282359 
L 77.975778 116.248341 
L 79.475026 116.248341 
L 80.974274 116.248341 
L 82.473523 116.180304 
L 83.972771 116.146285 
L 85.472019 116.146285 
L 86.971268 115.874138 
L 88.470516 115.857129 
L 89.969764 115.295826 
L 91.469013 115.295826 
L 92.968261 115.278817 
L 94.467509 115.244799 
L 95.966757 115.244799 
L 97.466006 115.244799 
L 98.965254 114.972652 
L 100.464502 112.91454 
L 101.963751 110.992503 
L 103.462999 110.975493 
L 104.962247 110.924466 
L 106.461495 108.560189 
L 107.960744 108.560189 
L 109.459992 108.526171 
L 110.95924 107.675712 
L 112.458489 107.658703 
L 113.957737 107.658703 
L 115.456985 107.012354 
L 116.956233 106.842262 
L 118.455482 106.842262 
L 119.95473 106.808243 
L 121.453978 106.808243 
L 122.953227 106.808243 
L 124.452475 106.757216 
L 125.951723 106.757216 
L 127.450972 104.665086 
L 128.95022 104.648077 
L 130.449468 104.205838 
L 131.948716 103.763599 
L 133.447965 103.74659 
L 134.947213 103.712572 
L 136.446461 103.678553 
L 137.94571 103.644535 
L 139.444958 103.54248 
L 140.944206 103.525471 
L 142.443454 103.508462 
L 143.942703 103.508462 
L 145.441951 103.389397 
L 146.941199 103.287342 
L 148.440448 103.287342 
L 149.939696 103.219306 
L 151.438944 102.981177 
L 152.938193 102.981177 
L 154.437441 102.981177 
L 155.936689 102.760058 
L 157.435937 102.726039 
L 158.935186 102.623984 
L 160.434434 102.50492 
L 161.933682 102.470901 
L 163.432931 102.419874 
L 164.932179 102.419874 
L 166.431427 102.402865 
L 167.930675 102.402865 
L 169.429924 102.402865 
L 170.929172 102.402865 
L 172.42842 102.402865 
L 173.927669 102.334828 
L 175.426917 101.960626 
L 176.926165 101.943617 
L 178.425413 101.909598 
L 179.924662 101.909598 
L 181.42391 101.87558 
L 182.923158 101.841562 
L 184.422407 101.841562 
L 185.921655 101.841562 
L 187.420903 101.586424 
L 188.920152 101.586424 
L 190.4194 101.348295 
L 191.918648 101.178203 
" clip-path="url(#p4c39afcd15)" style="fill: none; stroke: #1f77b4; stroke-width: 1.2; stroke-linecap: round"/>
   </g>
   <g id="line2d_14"/>
   <g id="line2d_15">
    <path d="M 44.992315 167.360939 
L 46.491564 167.34393 
L 47.990812 167.34393 
L 49.49006 167.34393 
L 50.989309 141.132777 
L 52.488557 123.222106 
L 53.987805 121.487169 
L 55.487054 113.799018 
L 56.986302 112.336228 
L 58.48555 111.621842 
L 59.984798 111.332686 
L 61.484047 111.094558 
L 62.983295 110.83942 
L 64.482543 110.261108 
L 65.981792 110.091016 
L 67.48104 110.091016 
L 68.980288 109.546722 
L 70.479536 109.308593 
L 71.978785 109.223548 
L 73.478033 109.036446 
L 74.977281 108.628226 
L 76.47653 107.556647 
L 77.975778 107.556647 
L 79.475026 107.556647 
L 80.974274 107.539638 
L 82.473523 107.539638 
L 83.972771 106.587124 
L 85.472019 106.008812 
L 86.971268 105.515545 
L 88.470516 105.515545 
L 89.969764 105.498536 
L 91.469013 105.345454 
L 92.968261 105.20938 
L 94.467509 105.20938 
L 95.966757 105.175362 
L 97.466006 102.828094 
L 98.965254 102.794076 
L 100.464502 102.794076 
L 101.963751 102.794076 
L 103.462999 102.794076 
L 104.962247 102.572957 
L 106.461495 102.385856 
L 107.960744 102.368846 
L 109.459992 102.334828 
L 110.95924 102.249782 
L 112.458489 102.232773 
L 113.957737 102.232773 
L 115.456985 102.198754 
L 116.956233 102.011653 
L 118.455482 101.858571 
L 119.95473 101.365304 
L 121.453978 99.78345 
L 122.953227 99.596349 
L 124.452475 99.137101 
L 125.951723 99.001028 
L 127.450972 98.813927 
L 128.95022 98.779908 
L 130.449468 97.776367 
L 131.948716 97.759357 
L 133.447965 97.759357 
L 134.947213 97.759357 
L 136.446461 97.759357 
L 137.94571 97.759357 
L 139.444958 97.70833 
L 140.944206 97.70833 
L 142.443454 97.640293 
L 143.942703 97.48721 
L 145.441951 97.48721 
L 146.941199 97.402165 
L 148.440448 97.385155 
L 149.939696 97.368146 
L 151.438944 97.181045 
L 152.938193 95.922366 
L 154.437441 95.718255 
L 155.936689 95.701246 
L 157.435937 95.344053 
L 158.935186 94.918824 
L 160.434434 94.442567 
L 161.933682 94.442567 
L 163.432931 94.442567 
L 164.932179 94.357521 
L 166.431427 94.357521 
L 167.930675 94.306493 
L 169.429924 94.306493 
L 170.929172 94.187429 
L 172.42842 94.15341 
L 173.927669 94.085374 
L 175.426917 93.9493 
L 176.926165 93.915282 
L 178.425413 93.915282 
L 179.924662 93.864254 
L 181.42391 93.779208 
L 182.923158 93.779208 
L 184.422407 93.779208 
L 185.921655 93.762199 
L 187.420903 93.762199 
L 188.920152 93.694162 
L 190.4194 93.694162 
L 191.918648 93.694162 
" clip-path="url(#p4c39afcd15)" style="fill: none; stroke: #aec7e8; stroke-width: 1.2; stroke-linecap: round"/>
   </g>
   <g id="line2d_16"/>
   <g id="line2d_17">
    <path d="M 44.992315 167.590563 
L 46.491564 167.156829 
L 47.990812 166.782626 
L 49.49006 166.782626 
L 50.989309 166.782626 
L 52.488557 166.782626 
L 53.987805 166.782626 
L 55.487054 166.782626 
L 56.986302 166.782626 
L 58.48555 144.82377 
L 59.984798 144.032843 
L 61.484047 143.981815 
L 62.983295 143.735182 
L 64.482543 141.89819 
L 65.981792 140.384373 
L 67.48104 140.103721 
L 68.980288 139.627464 
L 70.479536 139.550923 
L 71.978785 139.278776 
L 73.478033 139.108684 
L 74.977281 137.586362 
L 76.47653 137.586362 
L 77.975778 137.586362 
L 79.475026 134.022938 
L 80.974274 133.980415 
L 82.473523 132.849304 
L 83.972771 132.82379 
L 85.472019 126.479365 
L 86.971268 126.334787 
L 88.470516 126.26675 
L 89.969764 126.06264 
L 91.469013 126.045631 
L 92.968261 126.028621 
L 94.467509 125.297226 
L 95.966757 125.186667 
L 97.466006 125.186667 
L 98.965254 125.033584 
L 100.464502 125.033584 
L 101.963751 112.489311 
L 103.462999 102.538938 
L 104.962247 100.463818 
L 106.461495 99.128597 
L 107.960744 98.210101 
L 109.459992 96.781329 
L 110.95924 95.879843 
L 112.458489 95.216484 
L 113.957737 95.139943 
L 115.456985 93.762199 
L 116.956233 93.617621 
L 118.455482 93.566594 
L 119.95473 93.532575 
L 121.453978 93.285942 
L 122.953227 93.124355 
L 124.452475 92.818189 
L 125.951723 92.537538 
L 127.450972 92.341932 
L 128.95022 92.095299 
L 130.449468 91.916703 
L 131.948716 91.806143 
L 133.447965 91.508482 
L 134.947213 91.431941 
L 136.446461 91.006711 
L 137.94571 87.80048 
L 139.444958 87.383755 
L 140.944206 87.298709 
L 142.443454 87.256186 
L 143.942703 87.154131 
L 145.441951 87.137122 
L 146.941199 87.120113 
L 148.440448 87.111608 
L 149.939696 87.086094 
L 151.438944 87.035067 
L 152.938193 86.975535 
L 154.437441 86.87348 
L 155.936689 86.87348 
L 157.435937 86.703388 
L 158.935186 86.677874 
L 160.434434 86.618342 
L 161.933682 86.473764 
L 163.432931 86.405727 
L 164.932179 86.388718 
L 166.431427 86.261149 
L 167.930675 86.252644 
L 169.429924 86.235635 
L 170.929172 86.193112 
L 172.42842 86.074048 
L 173.927669 86.048534 
L 175.426917 79.05776 
L 176.926165 79.05776 
L 178.425413 79.04075 
L 179.924662 87.877021 
L 181.42391 87.877021 
L 182.923158 87.009553 
L 184.422407 87.009553 
L 185.921655 87.009553 
L 187.420903 87.009553 
L 188.920152 86.924507 
L 190.4194 86.924507 
L 191.918648 86.924507 
" clip-path="url(#p4c39afcd15)" style="fill: none; stroke: #ff9896; stroke-width: 1.2; stroke-linecap: round"/>
   </g>
   <g id="line2d_18"/>
   <g id="line2d_19">
    <path d="M 44.992315 124.837979 
L 46.491564 108.611217 
L 47.990812 108.100941 
L 49.49006 108.100941 
L 50.989309 106.927308 
L 52.488557 106.927308 
L 53.987805 106.910298 
L 55.487054 106.314977 
L 56.986302 106.24694 
L 58.48555 106.24694 
L 59.984798 106.24694 
L 61.484047 105.6176 
L 62.983295 102.606975 
L 64.482543 100.752974 
L 65.981792 98.932991 
L 67.48104 98.830936 
L 68.980288 94.680695 
L 70.479536 91.87418 
L 71.978785 89.492894 
L 73.478033 89.016637 
L 74.977281 86.567314 
L 76.47653 86.567314 
L 77.975778 86.533296 
L 79.475026 85.716855 
L 80.974274 85.597791 
L 82.473523 85.529754 
L 83.972771 84.220047 
L 85.472019 83.267533 
L 86.971268 81.974835 
L 88.470516 81.974835 
L 89.969764 80.682137 
L 91.469013 80.239898 
L 92.968261 80.018778 
L 94.467509 80.018778 
L 95.966757 79.848687 
L 97.466006 79.848687 
L 98.965254 79.848687 
L 100.464502 77.382355 
L 101.963751 77.297309 
L 103.462999 77.229272 
L 104.962247 77.229272 
L 106.461495 77.229272 
L 107.960744 76.736006 
L 109.459992 76.736006 
L 110.95924 76.65096 
L 112.458489 76.514886 
L 113.957737 76.514886 
L 115.456985 76.310776 
L 116.956233 76.276758 
L 118.455482 76.157694 
L 119.95473 76.157694 
L 121.453978 76.089657 
L 122.953227 75.987602 
L 124.452475 75.987602 
L 125.951723 75.902556 
L 127.450972 75.902556 
L 128.95022 75.851528 
L 130.449468 75.001069 
L 131.948716 74.456775 
L 133.447965 74.439766 
L 134.947213 74.439766 
L 136.446461 73.334169 
L 137.94571 72.194554 
L 139.444958 71.820352 
L 140.944206 71.820352 
L 142.443454 71.803342 
L 143.942703 71.65026 
L 145.441951 70.81681 
L 146.941199 70.81681 
L 148.440448 70.527654 
L 149.939696 70.408589 
L 151.438944 70.18747 
L 152.938193 70.102424 
L 154.437441 69.76224 
L 155.936689 68.775708 
L 157.435937 68.741689 
L 158.935186 68.741689 
L 160.434434 68.622625 
L 161.933682 68.622625 
L 163.432931 68.622625 
L 164.932179 68.622625 
L 166.431427 68.622625 
L 167.930675 68.622625 
L 169.429924 68.588607 
L 170.929172 68.588607 
L 172.42842 68.588607 
L 173.927669 68.588607 
L 175.426917 68.588607 
L 176.926165 67.721138 
L 178.425413 67.48301 
L 179.924662 67.431982 
L 181.42391 66.768624 
L 182.923158 66.105266 
L 184.422407 66.02022 
L 185.921655 65.986202 
L 187.420903 65.969192 
L 188.920152 65.969192 
L 190.4194 65.969192 
L 191.918648 65.969192 
" clip-path="url(#p4c39afcd15)" style="fill: none; stroke: #ff7f0e; stroke-width: 1.2; stroke-linecap: round"/>
   </g>
   <g id="line2d_20"/>
   <g id="line2d_21">
    <path d="M 44.992315 167.888223 
L 46.491564 167.888223 
L 47.990812 167.888223 
L 49.49006 123.715372 
L 50.989309 120.551664 
L 52.488557 113.679954 
L 53.987805 102.028663 
L 55.487054 102.011653 
L 56.986302 102.011653 
L 58.48555 102.011653 
L 59.984798 102.011653 
L 61.484047 102.011653 
L 62.983295 102.011653 
L 64.482543 102.011653 
L 65.981792 102.011653 
L 67.48104 101.161194 
L 68.980288 100.191671 
L 70.479536 99.188129 
L 71.978785 99.154111 
L 73.478033 99.137101 
L 74.977281 99.137101 
L 76.47653 98.677853 
L 77.975778 98.473743 
L 79.475026 98.303651 
L 80.974274 98.167578 
L 82.473523 93.490052 
L 83.972771 89.867096 
L 85.472019 89.765041 
L 86.971268 89.765041 
L 88.470516 89.765041 
L 89.969764 89.697004 
L 91.469013 89.697004 
L 92.968261 88.829536 
L 94.467509 88.778508 
L 95.966757 86.584323 
L 97.466006 86.363204 
L 98.965254 86.329186 
L 100.464502 86.312177 
L 101.963751 86.02302 
L 103.462999 84.237056 
L 104.962247 83.641735 
L 106.461495 83.505661 
L 107.960744 83.131459 
L 109.459992 82.655202 
L 110.95924 82.655202 
L 112.458489 82.655202 
L 113.957737 82.655202 
L 115.456985 82.604174 
L 116.956233 82.604174 
L 118.455482 81.719697 
L 119.95473 81.566614 
L 121.453978 81.481568 
L 122.953227 81.481568 
L 124.452475 81.464559 
L 125.951723 81.44755 
L 127.450972 81.413532 
L 128.95022 81.413532 
L 130.449468 81.039329 
L 131.948716 79.916723 
L 133.447965 79.066264 
L 134.947213 78.964209 
L 136.446461 78.828136 
L 137.94571 78.641035 
L 139.444958 78.504961 
L 140.944206 77.501419 
L 142.443454 76.701988 
L 143.942703 76.327785 
L 145.441951 76.174703 
L 146.941199 76.174703 
L 148.440448 76.174703 
L 149.939696 76.174703 
L 151.438944 76.174703 
L 152.938193 76.174703 
L 154.437441 76.174703 
L 155.936689 76.123675 
L 157.435937 75.953583 
L 158.935186 75.953583 
L 160.434434 75.834519 
L 161.933682 75.664427 
L 163.432931 75.664427 
L 164.932179 75.664427 
L 166.431427 75.40929 
L 167.930675 74.899014 
L 169.429924 74.899014 
L 170.929172 74.813968 
L 172.42842 74.813968 
L 173.927669 74.813968 
L 175.426917 74.813968 
L 176.926165 74.813968 
L 178.425413 74.813968 
L 179.924662 74.813968 
L 181.42391 74.813968 
L 182.923158 68.690662 
L 184.422407 68.690662 
L 185.921655 68.452533 
L 187.420903 68.452533 
" clip-path="url(#p4c39afcd15)" style="fill: none; stroke: #ffbb78; stroke-width: 1.2; stroke-linecap: round"/>
   </g>
   <g id="line2d_22"/>
   <g id="line2d_23">
    <path d="M 44.992315 169.30849 
L 46.491564 169.070362 
L 47.990812 169.01083 
L 49.49006 169.01083 
L 50.989309 168.908775 
L 52.488557 168.636628 
L 53.987805 168.628123 
L 55.487054 168.628123 
L 56.986302 167.335425 
L 58.48555 150.964085 
L 59.984798 148.387194 
L 61.484047 147.868414 
L 62.983295 146.363101 
L 64.482543 145.308532 
L 65.981792 145.095917 
L 67.48104 145.095917 
L 68.980288 141.413428 
L 70.479536 141.353896 
L 71.978785 141.260346 
L 73.478033 141.234832 
L 74.977281 140.197272 
L 76.47653 140.171758 
L 77.975778 139.627464 
L 79.475026 139.627464 
L 80.974274 139.482886 
L 82.473523 139.440363 
L 83.972771 138.845042 
L 85.472019 137.654399 
L 86.971268 137.450289 
L 88.470516 137.382252 
L 89.969764 136.021517 
L 91.469013 135.996003 
L 92.968261 135.774884 
L 94.467509 134.907415 
L 95.966757 134.694801 
L 97.466006 134.60125 
L 98.965254 134.499195 
L 100.464502 134.346112 
L 101.963751 134.329103 
L 103.462999 134.159011 
L 104.962247 134.150507 
L 106.461495 134.107984 
L 107.960744 133.844341 
L 109.459992 133.7678 
L 110.95924 133.750791 
L 112.458489 133.691259 
L 113.957737 133.631727 
L 115.456985 133.538176 
L 116.956233 133.538176 
L 118.455482 133.521167 
L 119.95473 133.487149 
L 121.453978 133.470139 
L 122.953227 133.334066 
L 124.452475 133.317057 
L 125.951723 133.317057 
L 127.450972 133.300048 
L 128.95022 133.206497 
L 130.449468 133.112947 
L 131.948716 133.112947 
L 133.447965 133.087433 
L 134.947213 133.087433 
L 136.446461 132.993882 
L 137.94571 132.993882 
L 139.444958 132.985378 
L 140.944206 132.976873 
L 142.443454 132.959864 
L 143.942703 132.942855 
L 145.441951 132.466598 
L 146.941199 132.288001 
L 148.440448 132.245478 
L 149.939696 132.194451 
L 151.438944 132.160432 
L 152.938193 132.160432 
L 154.437441 132.143423 
L 155.936689 132.143423 
L 157.435937 131.998845 
L 158.935186 125.042089 
L 160.434434 124.480786 
L 161.933682 124.234152 
L 163.432931 123.723877 
L 164.932179 123.723877 
L 166.431427 123.264629 
L 167.930675 122.864913 
L 169.429924 122.686317 
L 170.929172 122.677812 
L 172.42842 122.567252 
L 173.927669 122.558748 
L 175.426917 122.116509 
L 176.926165 121.980436 
L 178.425413 121.810344 
L 179.924662 121.546701 
L 181.42391 121.410628 
L 182.923158 121.37661 
L 184.422407 121.37661 
L 185.921655 121.019417 
L 187.420903 120.806802 
L 188.920152 73.232114 
L 190.4194 73.232114 
L 191.918648 73.232114 
" clip-path="url(#p4c39afcd15)" style="fill: none; stroke: #2ca02c; stroke-width: 1.2; stroke-linecap: round"/>
   </g>
   <g id="line2d_24"/>
   <g id="line2d_25">
    <path d="M 44.992315 167.462994 
L 46.491564 167.445985 
L 47.990812 149.662883 
L 49.49006 147.757854 
L 50.989309 144.866293 
L 52.488557 144.08387 
L 53.987805 143.964806 
L 55.487054 143.463035 
L 56.986302 125.518346 
L 58.48555 122.21006 
L 59.984798 121.912399 
L 61.484047 121.257545 
L 62.983295 119.309994 
L 64.482543 119.131397 
L 65.981792 119.071865 
L 67.48104 118.059819 
L 68.980288 117.524029 
L 70.479536 117.524029 
L 71.978785 117.524029 
L 73.478033 117.41347 
L 74.977281 117.336928 
L 76.47653 117.149827 
L 77.975778 116.15479 
L 79.475026 116.129276 
L 80.974274 115.644515 
L 82.473523 115.312835 
L 83.972771 115.176762 
L 85.472019 115.176762 
L 86.971268 114.862092 
L 88.470516 114.862092 
L 89.969764 114.836578 
L 91.469013 114.717514 
L 92.968261 114.717514 
L 94.467509 114.717514 
L 95.966757 114.717514 
L 97.466006 114.011633 
L 98.965254 113.305752 
L 100.464502 112.41277 
L 101.963751 111.001007 
L 103.462999 110.516246 
L 104.962247 110.516246 
L 106.461495 110.516246 
L 107.960744 110.516246 
L 109.459992 110.159053 
L 110.95924 110.056998 
L 112.458489 109.980456 
L 113.957737 109.971952 
L 115.456985 109.971952 
L 116.956233 109.971952 
L 118.455482 109.937933 
L 119.95473 109.869897 
L 121.453978 109.835878 
L 122.953227 109.776346 
L 124.452475 109.776346 
L 125.951723 109.776346 
L 127.450972 109.776346 
L 128.95022 109.759337 
L 130.449468 109.725318 
L 131.948716 109.725318 
L 133.447965 109.725318 
L 134.947213 109.155511 
L 136.446461 109.155511 
L 137.94571 109.010933 
L 139.444958 109.002428 
L 140.944206 109.002428 
L 142.443454 108.874859 
L 143.942703 108.815327 
L 145.441951 108.398602 
L 146.941199 108.356079 
L 148.440448 108.330565 
L 149.939696 108.271033 
L 151.438944 108.237015 
L 152.938193 108.237015 
L 154.437441 108.202996 
L 155.936689 108.160474 
L 157.435937 108.109446 
L 158.935186 108.083932 
L 160.434434 107.990382 
L 161.933682 100.021579 
L 163.432931 100.00457 
L 164.932179 99.996065 
L 166.431427 99.655881 
L 167.930675 99.655881 
L 169.429924 99.511303 
L 170.929172 99.383735 
L 172.42842 99.383735 
L 173.927669 99.17112 
L 175.426917 98.881964 
L 176.926165 98.864954 
L 178.425413 98.728881 
L 179.924662 98.609817 
L 181.42391 98.499257 
L 182.923158 98.269633 
L 184.422407 98.244119 
L 185.921655 98.099541 
L 187.420903 98.023 
L 188.920152 68.92879 
L 190.4194 68.894772 
L 191.918648 68.826735 
" clip-path="url(#p4c39afcd15)" style="fill: none; stroke: #98df8a; stroke-width: 1.2; stroke-linecap: round"/>
   </g>
   <g id="line2d_26"/>
   <g id="line2d_27">
    <path d="M 44.992315 169.044848 
L 46.491564 168.840738 
L 47.990812 168.483545 
L 49.49006 168.483545 
L 50.989309 168.483545 
L 52.488557 168.483545 
L 53.987805 168.483545 
L 55.487054 168.483545 
L 56.986302 168.483545 
L 58.48555 168.483545 
L 59.984798 168.483545 
L 61.484047 168.483545 
L 62.983295 168.483545 
L 64.482543 168.483545 
L 65.981792 168.483545 
L 67.48104 168.483545 
L 68.980288 168.483545 
L 70.479536 168.483545 
L 71.978785 168.483545 
L 73.478033 168.483545 
L 74.977281 168.483545 
L 76.47653 168.483545 
L 77.975778 168.483545 
L 79.475026 168.483545 
L 80.974274 168.483545 
L 82.473523 168.483545 
L 83.972771 168.483545 
L 85.472019 168.483545 
L 86.971268 168.483545 
L 88.470516 168.483545 
L 89.969764 168.483545 
L 91.469013 168.483545 
L 92.968261 168.483545 
L 94.467509 168.483545 
L 95.966757 168.483545 
L 97.466006 168.483545 
L 98.965254 168.483545 
L 100.464502 168.483545 
L 101.963751 168.483545 
L 103.462999 168.483545 
L 104.962247 168.483545 
L 106.461495 168.483545 
L 107.960744 168.483545 
L 109.459992 168.483545 
L 110.95924 168.483545 
L 112.458489 168.483545 
L 113.957737 168.483545 
L 115.456985 168.483545 
L 116.956233 168.483545 
L 118.455482 168.483545 
L 119.95473 168.483545 
L 121.453978 168.483545 
L 122.953227 168.483545 
L 124.452475 168.483545 
L 125.951723 168.483545 
L 127.450972 168.483545 
L 128.95022 168.483545 
L 130.449468 168.483545 
L 131.948716 168.483545 
L 133.447965 168.483545 
L 134.947213 168.483545 
L 136.446461 168.483545 
L 137.94571 168.483545 
L 139.444958 168.483545 
L 140.944206 168.483545 
L 142.443454 168.483545 
L 143.942703 168.483545 
L 145.441951 168.483545 
L 146.941199 168.483545 
L 148.440448 168.483545 
L 149.939696 168.483545 
L 151.438944 168.483545 
L 152.938193 168.483545 
L 154.437441 168.483545 
L 155.936689 168.483545 
L 157.435937 168.483545 
L 158.935186 168.483545 
L 160.434434 168.483545 
L 161.933682 168.483545 
L 163.432931 168.483545 
L 164.932179 168.483545 
L 166.431427 168.483545 
L 167.930675 168.483545 
L 169.429924 168.483545 
L 170.929172 168.483545 
L 172.42842 168.483545 
L 173.927669 168.483545 
L 175.426917 168.483545 
L 176.926165 168.483545 
L 178.425413 168.483545 
L 179.924662 168.483545 
L 181.42391 168.483545 
L 182.923158 168.483545 
L 184.422407 168.483545 
L 185.921655 168.483545 
L 187.420903 168.483545 
" clip-path="url(#p4c39afcd15)" style="fill: none; stroke: #c5b0d5; stroke-width: 1.2; stroke-linecap: round"/>
   </g>
   <g id="line2d_28"/>
   <g id="line2d_29">
    <path d="M 44.992315 160.387173 
L 46.491564 152.256783 
L 47.990812 122.898932 
L 49.49006 120.466618 
L 50.989309 107.233473 
L 52.488557 106.791234 
L 53.987805 105.345454 
L 55.487054 104.58004 
L 56.986302 104.256866 
L 58.48555 103.440425 
L 59.984798 101.654461 
L 61.484047 99.766441 
L 62.983295 93.31996 
L 64.482543 93.013795 
L 65.981792 78.862154 
L 67.48104 78.74309 
L 68.980288 77.365346 
L 70.479536 77.365346 
L 71.978785 77.05918 
L 73.478033 77.05918 
L 74.977281 76.24274 
L 76.47653 75.307234 
L 77.975778 75.069106 
L 79.475026 75.001069 
L 80.974274 74.728922 
L 82.473523 74.524812 
L 83.972771 74.456775 
L 85.472019 74.456775 
L 86.971268 74.269674 
L 88.470516 73.623325 
L 89.969764 73.300151 
L 91.469013 73.266132 
L 92.968261 72.874921 
L 94.467509 72.806884 
L 95.966757 71.85437 
L 97.466006 59.913923 
L 98.965254 59.199537 
L 100.464502 58.92739 
L 101.963751 58.893372 
L 103.462999 58.025903 
L 104.962247 57.821793 
L 106.461495 57.158435 
L 107.960744 55.831719 
L 109.459992 55.712654 
L 110.95924 55.644618 
L 112.458489 54.96425 
L 113.957737 54.96425 
L 115.456985 54.76014 
L 116.956233 54.726122 
L 118.455482 54.726122 
L 119.95473 54.726122 
L 121.453978 54.726122 
L 122.953227 54.641076 
L 124.452475 54.283883 
L 125.951723 54.096782 
L 127.450972 54.096782 
L 128.95022 54.096782 
L 130.449468 53.943699 
L 131.948716 53.059222 
L 133.447965 52.616983 
L 134.947213 52.514928 
L 136.446461 52.514928 
L 137.94571 52.480909 
L 139.444958 52.480909 
L 140.944206 51.698487 
L 142.443454 51.664469 
L 143.942703 51.647459 
L 145.441951 51.613441 
L 146.941199 51.613441 
L 148.440448 51.613441 
L 149.939696 51.613441 
L 151.438944 51.613441 
L 152.938193 50.507844 
L 154.437441 50.507844 
L 155.936689 50.507844 
L 157.435937 50.507844 
L 158.935186 49.997568 
L 160.434434 49.249164 
L 161.933682 49.249164 
L 163.432931 49.249164 
L 164.932179 49.249164 
L 166.431427 47.786375 
L 167.930675 47.786375 
L 169.429924 47.786375 
L 170.929172 46.238539 
L 172.42842 45.830318 
L 173.927669 45.830318 
L 175.426917 44.877804 
L 176.926165 44.809767 
L 178.425413 43.72118 
L 179.924662 43.619124 
L 181.42391 42.275399 
L 182.923158 41.288866 
L 184.422407 41.288866 
L 185.921655 41.288866 
L 187.420903 41.288866 
L 188.920152 41.288866 
L 190.4194 41.288866 
L 191.918648 41.288866 
" clip-path="url(#p4c39afcd15)" style="fill: none; stroke: #8c564b; stroke-width: 1.2; stroke-linecap: round"/>
   </g>
   <g id="line2d_30"/>
   <g id="patch_3">
    <path d="M 43.493067 176.340937 
L 43.493067 31.917656 
" style="fill: none; stroke: #ffffff; stroke-width: 1.25; stroke-linejoin: miter; stroke-linecap: square"/>
   </g>
   <g id="patch_4">
    <path d="M 43.493067 176.340937 
L 187.420903 176.340937 
" style="fill: none; stroke: #ffffff; stroke-width: 1.25; stroke-linejoin: miter; stroke-linecap: square"/>
   </g>
   <g id="text_13">
    <text style="fill: #262626; font: 12px 'Arial', 'DejaVu Sans', 'Liberation Sans', 'Bitstream Vera Sans', sans-serif; text-anchor: middle" x="115.456985" y="25.917656" transform="rotate(-0 115.456985 25.917656)">exiv2</text>
   </g>
  </g>
  <g id="legend_1">
   <g id="line2d_31">
    <path d="M 210.897934 15.623594 
L 221.897934 15.623594 
L 232.897934 15.623594 
" style="fill: none; stroke: #8c564b; stroke-width: 1.2; stroke-linecap: round"/>
   </g>
   <g id="text_14">
    <text style="fill: #262626; font: 11px 'Arial', 'DejaVu Sans', 'Liberation Sans', 'Bitstream Vera Sans', sans-serif; text-anchor: start" x="241.697934" y="19.473594" transform="rotate(-0 241.697934 19.473594)">RedQueen</text>
   </g>
   <g id="line2d_32">
    <path d="M 210.897934 31.183437 
L 221.897934 31.183437 
L 232.897934 31.183437 
" style="fill: none; stroke: #c49c94; stroke-width: 3; stroke-linecap: round"/>
   </g>
   <g id="text_15">
    <text style="fill: #262626; font: 11px 'Arial', 'DejaVu Sans', 'Liberation Sans', 'Bitstream Vera Sans', sans-serif; text-anchor: start" x="241.697934" y="35.033437" transform="rotate(-0 241.697934 35.033437)">autofz</text>
   </g>
   <g id="line2d_33">
    <path d="M 210.897934 46.743281 
L 221.897934 46.743281 
L 232.897934 46.743281 
" style="fill: none; stroke: #ff7f0e; stroke-width: 1.2; stroke-linecap: round"/>
   </g>
   <g id="text_16">
    <text style="fill: #262626; font: 11px 'Arial', 'DejaVu Sans', 'Liberation Sans', 'Bitstream Vera Sans', sans-serif; text-anchor: start" x="241.697934" y="50.593281" transform="rotate(-0 241.697934 50.593281)">Angora</text>
   </g>
   <g id="line2d_34">
    <path d="M 210.897934 62.432031 
L 221.897934 62.432031 
L 232.897934 62.432031 
" style="fill: none; stroke: #ffbb78; stroke-width: 1.2; stroke-linecap: round"/>
   </g>
   <g id="text_17">
    <text style="fill: #262626; font: 11px 'Arial', 'DejaVu Sans', 'Liberation Sans', 'Bitstream Vera Sans', sans-serif; text-anchor: start" x="241.697934" y="66.282031" transform="rotate(-0 241.697934 66.282031)">FairFuzz</text>
   </g>
   <g id="line2d_35">
    <path d="M 210.897934 78.132812 
L 221.897934 78.132812 
L 232.897934 78.132812 
" style="fill: none; stroke: #ff9896; stroke-width: 1.2; stroke-linecap: round"/>
   </g>
   <g id="text_18">
    <text style="fill: #262626; font: 11px 'Arial', 'DejaVu Sans', 'Liberation Sans', 'Bitstream Vera Sans', sans-serif; text-anchor: start" x="241.697934" y="81.982812" transform="rotate(-0 241.697934 81.982812)">MOpt</text>
   </g>
   <g id="line2d_36">
    <path d="M 210.897934 93.692656 
L 221.897934 93.692656 
L 232.897934 93.692656 
" style="fill: none; stroke: #aec7e8; stroke-width: 1.2; stroke-linecap: round"/>
   </g>
   <g id="text_19">
    <text style="fill: #262626; font: 11px 'Arial', 'DejaVu Sans', 'Liberation Sans', 'Bitstream Vera Sans', sans-serif; text-anchor: start" x="241.697934" y="97.542656" transform="rotate(-0 241.697934 97.542656)">AFLFast</text>
   </g>
   <g id="line2d_37">
    <path d="M 210.897934 109.2525 
L 221.897934 109.2525 
L 232.897934 109.2525 
" style="fill: none; stroke: #98df8a; stroke-width: 1.2; stroke-linecap: round"/>
   </g>
   <g id="text_20">
    <text style="fill: #262626; font: 11px 'Arial', 'DejaVu Sans', 'Liberation Sans', 'Bitstream Vera Sans', sans-serif; text-anchor: start" x="241.697934" y="113.1025" transform="rotate(-0 241.697934 113.1025)">LearnAFL</text>
   </g>
   <g id="line2d_38">
    <path d="M 210.897934 124.812344 
L 221.897934 124.812344 
L 232.897934 124.812344 
" style="fill: none; stroke: #1f77b4; stroke-width: 1.2; stroke-linecap: round"/>
   </g>
   <g id="text_21">
    <text style="fill: #262626; font: 11px 'Arial', 'DejaVu Sans', 'Liberation Sans', 'Bitstream Vera Sans', sans-serif; text-anchor: start" x="241.697934" y="128.662344" transform="rotate(-0 241.697934 128.662344)">AFL</text>
   </g>
   <g id="line2d_39">
    <path d="M 210.897934 140.372187 
L 221.897934 140.372187 
L 232.897934 140.372187 
" style="fill: none; stroke: #2ca02c; stroke-width: 1.2; stroke-linecap: round"/>
   </g>
   <g id="text_22">
    <text style="fill: #262626; font: 11px 'Arial', 'DejaVu Sans', 'Liberation Sans', 'Bitstream Vera Sans', sans-serif; text-anchor: start" x="241.697934" y="144.222187" transform="rotate(-0 241.697934 144.222187)">LAF-Intel</text>
   </g>
   <g id="line2d_40">
    <path d="M 210.897934 155.932031 
L 221.897934 155.932031 
L 232.897934 155.932031 
" style="fill: none; stroke: #c5b0d5; stroke-width: 1.2; stroke-linecap: round"/>
   </g>
   <g id="text_23">
    <text style="fill: #262626; font: 11px 'Arial', 'DejaVu Sans', 'Liberation Sans', 'Bitstream Vera Sans', sans-serif; text-anchor: start" x="241.697934" y="159.782031" transform="rotate(-0 241.697934 159.782031)">Radamsa</text>
   </g>
  </g>
 </g>
 <defs>
  <clipPath id="p4c39afcd15">
   <rect x="43.493067" y="31.917656" width="143.927836" height="144.423281"/>
  </clipPath>
 </defs>
</svg>
