<?xml version="1.0" encoding="utf-8" standalone="no"?>
<!DOCTYPE svg PUBLIC "-//W3C//DTD SVG 1.1//EN"
  "http://www.w3.org/Graphics/SVG/1.1/DTD/svg11.dtd">
<svg xmlns:xlink="http://www.w3.org/1999/xlink" width="302.797365pt" height="204.48pt" viewBox="0 0 302.797365 204.48" xmlns="http://www.w3.org/2000/svg" version="1.1">
 <metadata>
  <rdf:RDF xmlns:dc="http://purl.org/dc/elements/1.1/" xmlns:cc="http://creativecommons.org/ns#" xmlns:rdf="http://www.w3.org/1999/02/22-rdf-syntax-ns#">
   <cc:Work>
    <dc:type rdf:resource="http://purl.org/dc/dcmitype/StillImage"/>
    <dc:date>2024-04-30T23:40:35.225292</dc:date>
    <dc:format>image/svg+xml</dc:format>
    <dc:creator>
     <cc:Agent>
      <dc:title>Matplotlib v3.7.1, https://matplotlib.org/</dc:title>
     </cc:Agent>
    </dc:creator>
   </cc:Work>
  </rdf:RDF>
 </metadata>
 <defs>
  <style type="text/css">*{stroke-linejoin: round; stroke-linecap: butt}</style>
 </defs>
 <g id="figure_1">
  <g id="patch_1">
   <path d="M 0 204.48 
L 302.797365 204.48 
L 302.797365 0 
L 0 0 
z
" style="fill: #ffffff"/>
  </g>
  <g id="axes_1">
   <g id="patch_2">
    <path d="M 42.875941 166.212656 
L 183.718146 166.212656 
L 183.718146 21.789375 
L 42.875941 21.789375 
z
" style="fill: #eaeaf2"/>
   </g>
   <g id="matplotlib.axis_1">
    <g id="xtick_1">
     <g id="line2d_1">
      <path d="M 42.875941 166.212656 
L 42.875941 21.789375 
" clip-path="url(#p95ec5f8e61)" style="fill: none; stroke: #ffffff; stroke-linecap: round"/>
     </g>
     <g id="text_1">
      <text style="fill: #262626; font: 11px 'Arial', 'DejaVu Sans', 'Liberation Sans', 'Bitstream Vera Sans', sans-serif; text-anchor: middle" x="42.875941" y="183.58625" transform="rotate(-0 42.875941 183.58625)">0</text>
     </g>
    </g>
    <g id="xtick_2">
     <g id="line2d_2">
      <path d="M 78.086492 166.212656 
L 78.086492 21.789375 
" clip-path="url(#p95ec5f8e61)" style="fill: none; stroke: #ffffff; stroke-linecap: round"/>
     </g>
     <g id="text_2">
      <text style="fill: #262626; font: 11px 'Arial', 'DejaVu Sans', 'Liberation Sans', 'Bitstream Vera Sans', sans-serif; text-anchor: middle" x="78.086492" y="183.58625" transform="rotate(-0 78.086492 183.58625)">6</text>
     </g>
    </g>
    <g id="xtick_3">
     <g id="line2d_3">
      <path d="M 113.297044 166.212656 
L 113.297044 21.789375 
" clip-path="url(#p95ec5f8e61)" style="fill: none; stroke: #ffffff; stroke-linecap: round"/>
     </g>
     <g id="text_3">
      <text style="fill: #262626; font: 11px 'Arial', 'DejaVu Sans', 'Liberation Sans', 'Bitstream Vera Sans', sans-serif; text-anchor: middle" x="113.297044" y="183.58625" transform="rotate(-0 113.297044 183.58625)">12</text>
     </g>
    </g>
    <g id="xtick_4">
     <g id="line2d_4">
      <path d="M 148.507595 166.212656 
L 148.507595 21.789375 
" clip-path="url(#p95ec5f8e61)" style="fill: none; stroke: #ffffff; stroke-linecap: round"/>
     </g>
     <g id="text_4">
      <text style="fill: #262626; font: 11px 'Arial', 'DejaVu Sans', 'Liberation Sans', 'Bitstream Vera Sans', sans-serif; text-anchor: middle" x="148.507595" y="183.58625" transform="rotate(-0 148.507595 183.58625)">18</text>
     </g>
    </g>
    <g id="xtick_5">
     <g id="line2d_5">
      <path d="M 183.718146 166.212656 
L 183.718146 21.789375 
" clip-path="url(#p95ec5f8e61)" style="fill: none; stroke: #ffffff; stroke-linecap: round"/>
     </g>
     <g id="text_5">
      <text style="fill: #262626; font: 11px 'Arial', 'DejaVu Sans', 'Liberation Sans', 'Bitstream Vera Sans', sans-serif; text-anchor: middle" x="183.718146" y="183.58625" transform="rotate(-0 183.718146 183.58625)">24</text>
     </g>
    </g>
    <g id="text_6">
     <text style="fill: #262626; font: 8px 'Arial', 'DejaVu Sans', 'Liberation Sans', 'Bitstream Vera Sans', sans-serif; text-anchor: middle" x="113.297044" y="195.59625" transform="rotate(-0 113.297044 195.59625)">CPU Time (CPU Hour)</text>
    </g>
   </g>
   <g id="matplotlib.axis_2">
    <g id="ytick_1">
     <g id="line2d_6">
      <path d="M 42.875941 144.814276 
L 183.718146 144.814276 
" clip-path="url(#p95ec5f8e61)" style="fill: none; stroke: #ffffff; stroke-linecap: round"/>
     </g>
     <g id="text_7">
      <text style="fill: #262626; font: 11px 'Arial', 'DejaVu Sans', 'Liberation Sans', 'Bitstream Vera Sans', sans-serif; text-anchor: end" x="33.375941" y="148.751072" transform="rotate(-0 33.375941 148.751072)">2</text>
     </g>
    </g>
    <g id="ytick_2">
     <g id="line2d_7">
      <path d="M 42.875941 111.900528 
L 183.718146 111.900528 
" clip-path="url(#p95ec5f8e61)" style="fill: none; stroke: #ffffff; stroke-linecap: round"/>
     </g>
     <g id="text_8">
      <text style="fill: #262626; font: 11px 'Arial', 'DejaVu Sans', 'Liberation Sans', 'Bitstream Vera Sans', sans-serif; text-anchor: end" x="33.375941" y="115.837325" transform="rotate(-0 33.375941 115.837325)">4</text>
     </g>
    </g>
    <g id="ytick_3">
     <g id="line2d_8">
      <path d="M 42.875941 78.98678 
L 183.718146 78.98678 
" clip-path="url(#p95ec5f8e61)" style="fill: none; stroke: #ffffff; stroke-linecap: round"/>
     </g>
     <g id="text_9">
      <text style="fill: #262626; font: 11px 'Arial', 'DejaVu Sans', 'Liberation Sans', 'Bitstream Vera Sans', sans-serif; text-anchor: end" x="33.375941" y="82.923577" transform="rotate(-0 33.375941 82.923577)">6</text>
     </g>
    </g>
    <g id="ytick_4">
     <g id="line2d_9">
      <path d="M 42.875941 46.073032 
L 183.718146 46.073032 
" clip-path="url(#p95ec5f8e61)" style="fill: none; stroke: #ffffff; stroke-linecap: round"/>
     </g>
     <g id="text_10">
      <text style="fill: #262626; font: 11px 'Arial', 'DejaVu Sans', 'Liberation Sans', 'Bitstream Vera Sans', sans-serif; text-anchor: end" x="33.375941" y="50.009829" transform="rotate(-0 33.375941 50.009829)">8</text>
     </g>
    </g>
    <g id="text_11">
     <text style="fill: #262626; font: 8px 'Arial', 'DejaVu Sans', 'Liberation Sans', 'Bitstream Vera Sans', sans-serif; text-anchor: middle" x="13.02375" y="94.001016" transform="rotate(-90 13.02375 94.001016)">Bitmap Density (\%)</text>
    </g>
   </g>
   <g id="PolyCollection_1">
    <defs>
     <path id="m1fec63f4cc" d="M 44.343047 -108.645867 
L 44.343047 -94.621264 
L 45.810154 -122.909027 
L 47.27726 -126.525039 
L 48.744366 -128.226323 
L 50.211473 -130.957165 
L 51.678579 -132.332003 
L 53.145685 -131.823502 
L 54.612791 -132.394781 
L 56.079898 -133.675452 
L 57.547004 -134.604567 
L 59.01411 -140.599865 
L 60.481217 -142.966595 
L 61.948323 -145.283103 
L 63.415429 -147.097387 
L 64.882536 -147.147609 
L 66.349642 -148.271335 
L 67.816748 -148.509892 
L 69.283855 -149.156505 
L 70.750961 -149.752896 
L 72.218067 -149.771729 
L 73.685173 -149.865896 
L 75.15228 -149.991452 
L 76.619386 -150.236287 
L 78.086492 -150.349287 
L 79.553599 -150.443454 
L 81.020705 -150.719677 
L 82.487811 -150.901733 
L 83.954918 -151.447902 
L 85.422024 -151.887348 
L 86.88913 -152.56535 
L 88.356236 -152.898073 
L 89.823343 -154.291745 
L 91.290449 -154.793969 
L 92.757555 -155.038803 
L 94.224662 -155.459415 
L 95.691768 -155.641472 
L 97.158874 -155.798417 
L 98.625981 -155.810972 
L 100.093087 -155.967917 
L 101.560193 -157.568756 
L 103.0273 -158.01448 
L 104.494406 -158.146314 
L 105.961512 -158.460204 
L 107.428618 -158.705038 
L 108.895725 -158.893372 
L 110.362831 -159.100539 
L 111.829937 -159.207262 
L 113.297044 -159.671819 
L 114.76415 -159.816208 
L 116.231256 -160.042209 
L 117.698363 -160.236821 
L 119.165469 -160.293321 
L 120.632575 -160.49421 
L 122.099681 -160.538155 
L 123.566788 -160.921101 
L 125.033894 -161.360547 
L 126.501 -161.398214 
L 127.968107 -161.95066 
L 129.435213 -161.492381 
L 130.902319 -161.498658 
L 132.369426 -161.743492 
L 133.836532 -161.743492 
L 135.303638 -161.80627 
L 136.770745 -162.270828 
L 138.237851 -161.89416 
L 139.704957 -161.912993 
L 141.172063 -162.220605 
L 142.63917 -162.515662 
L 144.106276 -162.729107 
L 145.573382 -162.898608 
L 147.040489 -162.967663 
L 148.507595 -163.055553 
L 149.974701 -163.137164 
L 151.441808 -163.187386 
L 152.908914 -163.438498 
L 154.37602 -163.438498 
L 155.843126 -163.469887 
L 157.310233 -163.488721 
L 158.777339 -163.620554 
L 160.244445 -164.587336 
L 161.711552 -164.863559 
L 163.178658 -165.026781 
L 164.645764 -165.108393 
L 166.112871 -165.296727 
L 167.579977 -165.503894 
L 169.047083 -165.798951 
L 170.51419 -166.45812 
L 171.981296 -166.671565 
L 173.448402 -166.746898 
L 174.915508 -166.797121 
L 176.382615 -167.023122 
L 177.849721 -167.123566 
L 179.316827 -167.613235 
L 180.783934 -167.324456 
L 182.25104 -167.437456 
L 183.718146 -167.450012 
L 185.185253 -167.450012 
L 186.652359 -167.650902 
L 188.119465 -167.650902 
L 188.119465 -176.12593 
L 188.119465 -176.12593 
L 186.652359 -176.12593 
L 185.185253 -175.862263 
L 183.718146 -175.862263 
L 182.25104 -175.862263 
L 180.783934 -175.849707 
L 179.316827 -175.761818 
L 177.849721 -175.761818 
L 176.382615 -175.724151 
L 174.915508 -175.837152 
L 173.448402 -175.548373 
L 171.981296 -175.372594 
L 170.51419 -175.140316 
L 169.047083 -174.81387 
L 167.579977 -174.64437 
L 166.112871 -174.33048 
L 164.645764 -174.399536 
L 163.178658 -174.355591 
L 161.711552 -174.317924 
L 160.244445 -174.267702 
L 158.777339 -174.217479 
L 157.310233 -174.098201 
L 155.843126 -174.066812 
L 154.37602 -174.035423 
L 152.908914 -173.934978 
L 151.441808 -173.771756 
L 149.974701 -173.319754 
L 148.507595 -172.911697 
L 147.040489 -172.76103 
L 145.573382 -172.679419 
L 144.106276 -172.612874 
L 142.63917 -172.396918 
L 141.172063 -172.578974 
L 139.704957 -172.095583 
L 138.237851 -172.051639 
L 136.770745 -171.988861 
L 135.303638 -171.988861 
L 133.836532 -171.800527 
L 132.369426 -171.712638 
L 130.902319 -171.417581 
L 129.435213 -171.398748 
L 127.968107 -171.39247 
L 126.501 -171.39247 
L 125.033894 -171.342247 
L 123.566788 -171.053469 
L 122.099681 -170.720745 
L 120.632575 -170.513578 
L 119.165469 -169.917187 
L 117.698363 -169.992521 
L 116.231256 -169.910909 
L 114.76415 -169.069684 
L 113.297044 -169.490297 
L 111.829937 -168.14057 
L 110.362831 -168.416793 
L 108.895725 -167.927125 
L 107.428618 -167.694846 
L 105.961512 -167.39979 
L 104.494406 -167.374678 
L 103.0273 -167.025005 
L 101.560193 -166.207008 
L 100.093087 -165.560394 
L 98.625981 -164.794503 
L 97.158874 -164.794503 
L 95.691768 -165.020504 
L 94.224662 -164.800781 
L 92.757555 -163.972111 
L 91.290449 -164.650113 
L 89.823343 -164.436668 
L 88.356236 -164.034889 
L 86.88913 -163.714721 
L 85.422024 -162.308494 
L 83.954918 -161.260102 
L 82.487811 -161.222435 
L 81.020705 -160.456544 
L 79.553599 -160.374932 
L 78.086492 -160.142654 
L 76.619386 -159.43954 
L 75.15228 -159.784819 
L 73.685173 -159.659263 
L 72.218067 -159.276317 
L 70.750961 -159.445818 
L 69.283855 -158.661093 
L 67.816748 -158.209092 
L 66.349642 -158.027035 
L 64.882536 -156.765198 
L 63.415429 -155.660305 
L 61.948323 -155.114137 
L 60.481217 -152.521405 
L 59.01411 -149.928674 
L 57.547004 -147.229221 
L 56.079898 -146.218495 
L 54.612791 -145.37727 
L 53.145685 -145.163825 
L 51.678579 -145.43377 
L 50.211473 -144.353989 
L 48.744366 -137.253798 
L 47.27726 -134.6234 
L 45.810154 -131.534723 
L 44.343047 -108.645867 
z
" style="stroke: #c49c94; stroke-opacity: 0.2"/>
    </defs>
    <g clip-path="url(#p95ec5f8e61)">
     <use xlink:href="#m1fec63f4cc" x="0" y="204.48" style="fill: #c49c94; fill-opacity: 0.2; stroke: #c49c94; stroke-opacity: 0.2"/>
    </g>
   </g>
   <g id="PolyCollection_2"/>
   <g id="PolyCollection_3">
    <defs>
     <path id="mff9e3d2e94" d="M 44.343047 -46.363821 
L 44.343047 -46.162932 
L 45.810154 -46.363821 
L 47.27726 -46.363821 
L 48.744366 -46.363821 
L 50.211473 -46.363821 
L 51.678579 -46.363821 
L 53.145685 -46.363821 
L 54.612791 -46.363821 
L 56.079898 -46.363821 
L 57.547004 -46.363821 
L 59.01411 -46.363821 
L 60.481217 -46.363821 
L 61.948323 -46.363821 
L 63.415429 -46.363821 
L 64.882536 -46.363821 
L 66.349642 -46.363821 
L 67.816748 -46.363821 
L 69.283855 -72.655244 
L 70.750961 -80.314159 
L 72.218067 -87.094182 
L 73.685173 -88.977522 
L 75.15228 -89.027745 
L 76.619386 -89.178412 
L 78.086492 -89.178412 
L 79.553599 -89.329079 
L 81.020705 -89.404413 
L 82.487811 -89.404413 
L 83.954918 -93.773761 
L 85.422024 -95.004209 
L 86.88913 -102.813792 
L 88.356236 -102.813792 
L 89.823343 -107.760697 
L 91.290449 -107.760697 
L 92.757555 -107.861142 
L 94.224662 -109.970483 
L 95.691768 -110.171372 
L 97.158874 -110.171372 
L 98.625981 -110.221595 
L 100.093087 -110.221595 
L 101.560193 -111.778489 
L 103.0273 -111.778489 
L 104.494406 -112.104934 
L 105.961512 -112.180268 
L 107.428618 -112.481602 
L 108.895725 -112.556936 
L 110.362831 -112.556936 
L 111.829937 -112.556936 
L 113.297044 -112.657381 
L 114.76415 -112.908493 
L 116.231256 -112.958715 
L 117.698363 -113.008937 
L 119.165469 -113.008937 
L 120.632575 -113.008937 
L 122.099681 -113.48605 
L 123.566788 -113.48605 
L 125.033894 -113.611606 
L 126.501 -113.611606 
L 127.968107 -114.31472 
L 129.435213 -114.364942 
L 130.902319 -114.364942 
L 132.369426 -114.415164 
L 133.836532 -114.565832 
L 135.303638 -114.666276 
L 136.770745 -114.666276 
L 138.237851 -114.691388 
L 139.704957 -114.691388 
L 141.172063 -114.791832 
L 142.63917 -114.842055 
L 144.106276 -115.344279 
L 145.573382 -115.36939 
L 147.040489 -115.394501 
L 148.507595 -115.394501 
L 149.974701 -115.394501 
L 151.441808 -115.394501 
L 152.908914 -115.394501 
L 154.37602 -115.595391 
L 155.843126 -115.595391 
L 157.310233 -115.595391 
L 158.777339 -115.645613 
L 160.244445 -115.771169 
L 161.711552 -116.725395 
L 163.178658 -116.825839 
L 164.645764 -117.026729 
L 166.112871 -117.05184 
L 167.579977 -117.127174 
L 169.047083 -117.127174 
L 170.51419 -117.177396 
L 171.981296 -117.328063 
L 173.448402 -117.328063 
L 174.915508 -117.503842 
L 176.382615 -117.503842 
L 177.849721 -117.528953 
L 179.316827 -117.528953 
L 180.783934 -117.528953 
L 182.25104 -117.528953 
L 183.718146 -117.528953 
L 183.718146 -118.056288 
L 183.718146 -118.056288 
L 182.25104 -118.031177 
L 180.783934 -117.88051 
L 179.316827 -117.830287 
L 177.849721 -117.780065 
L 176.382615 -117.754954 
L 174.915508 -117.729842 
L 173.448402 -117.604286 
L 171.981296 -117.453619 
L 170.51419 -117.353174 
L 169.047083 -117.227618 
L 167.579977 -117.177396 
L 166.112871 -117.127174 
L 164.645764 -117.102063 
L 163.178658 -117.026729 
L 161.711552 -117.026729 
L 160.244445 -116.926284 
L 158.777339 -116.926284 
L 157.310233 -116.876062 
L 155.843126 -116.876062 
L 154.37602 -116.876062 
L 152.908914 -116.876062 
L 151.441808 -116.876062 
L 149.974701 -116.800728 
L 148.507595 -116.574727 
L 147.040489 -116.549616 
L 145.573382 -116.549616 
L 144.106276 -116.172948 
L 142.63917 -115.921836 
L 141.172063 -115.921836 
L 139.704957 -115.093167 
L 138.237851 -114.816944 
L 136.770745 -114.716499 
L 135.303638 -114.716499 
L 133.836532 -114.716499 
L 132.369426 -114.716499 
L 130.902319 -114.616054 
L 129.435213 -114.616054 
L 127.968107 -114.465387 
L 126.501 -114.465387 
L 125.033894 -114.11383 
L 123.566788 -113.963163 
L 122.099681 -113.963163 
L 120.632575 -113.963163 
L 119.165469 -113.963163 
L 117.698363 -113.963163 
L 116.231256 -113.963163 
L 114.76415 -113.963163 
L 113.297044 -113.611606 
L 111.829937 -113.611606 
L 110.362831 -113.611606 
L 108.895725 -112.883381 
L 107.428618 -112.883381 
L 105.961512 -112.280713 
L 104.494406 -112.280713 
L 103.0273 -112.280713 
L 101.560193 -111.904045 
L 100.093087 -111.577599 
L 98.625981 -111.000042 
L 97.158874 -111.000042 
L 95.691768 -111.000042 
L 94.224662 -110.899597 
L 92.757555 -110.899597 
L 91.290449 -110.849375 
L 89.823343 -110.824263 
L 88.356236 -110.397373 
L 86.88913 -108.639589 
L 85.422024 -99.097334 
L 83.954918 -94.80332 
L 82.487811 -93.723538 
L 81.020705 -93.723538 
L 79.553599 -93.447315 
L 78.086492 -93.296648 
L 76.619386 -92.091311 
L 75.15228 -91.03664 
L 73.685173 -90.283304 
L 72.218067 -88.173964 
L 70.750961 -88.173964 
L 69.283855 -88.148853 
L 67.816748 -87.747074 
L 66.349642 -87.747074 
L 64.882536 -87.747074 
L 63.415429 -87.747074 
L 61.948323 -87.747074 
L 60.481217 -87.646629 
L 59.01411 -87.596406 
L 57.547004 -87.546184 
L 56.079898 -86.968626 
L 54.612791 -86.918404 
L 53.145685 -86.667292 
L 51.678579 -85.235954 
L 50.211473 -83.854838 
L 48.744366 -74.66414 
L 47.27726 -46.96649 
L 45.810154 -46.96649 
L 44.343047 -46.363821 
z
" style="stroke: #ff9896; stroke-opacity: 0.2"/>
    </defs>
    <g clip-path="url(#p95ec5f8e61)">
     <use xlink:href="#mff9e3d2e94" x="0" y="204.48" style="fill: #ff9896; fill-opacity: 0.2; stroke: #ff9896; stroke-opacity: 0.2"/>
    </g>
   </g>
   <g id="PolyCollection_4">
    <defs>
     <path id="m09e5c16720" d="M 44.343047 -81.042384 
L 44.343047 -45.91182 
L 45.810154 -45.91182 
L 47.27726 -68.98901 
L 48.744366 -75.015697 
L 50.211473 -78.907932 
L 51.678579 -80.289048 
L 53.145685 -80.289048 
L 54.612791 -80.289048 
L 56.079898 -80.665716 
L 57.547004 -82.147277 
L 59.01411 -82.147277 
L 60.481217 -82.147277 
L 61.948323 -82.147277 
L 63.415429 -82.147277 
L 64.882536 -83.277281 
L 66.349642 -83.503281 
L 67.816748 -83.704171 
L 69.283855 -85.713067 
L 70.750961 -85.863734 
L 72.218067 -86.365958 
L 73.685173 -86.365958 
L 75.15228 -88.374853 
L 76.619386 -88.374853 
L 78.086492 -93.97465 
L 79.553599 -94.075095 
L 81.020705 -94.225762 
L 82.487811 -94.225762 
L 83.954918 -94.275985 
L 85.422024 -94.275985 
L 86.88913 -94.326207 
L 88.356236 -94.426652 
L 89.823343 -94.426652 
L 91.290449 -95.079543 
L 92.757555 -95.079543 
L 94.224662 -95.079543 
L 95.691768 -95.079543 
L 97.158874 -95.079543 
L 98.625981 -95.079543 
L 100.093087 -95.079543 
L 101.560193 -95.079543 
L 103.0273 -95.079543 
L 104.494406 -95.129765 
L 105.961512 -95.129765 
L 107.428618 -95.129765 
L 108.895725 -95.129765 
L 110.362831 -95.129765 
L 111.829937 -95.129765 
L 113.297044 -95.154877 
L 114.76415 -95.154877 
L 116.231256 -95.154877 
L 117.698363 -95.154877 
L 119.165469 -95.154877 
L 120.632575 -95.154877 
L 122.099681 -95.154877 
L 123.566788 -95.154877 
L 125.033894 -95.154877 
L 126.501 -95.154877 
L 127.968107 -95.205099 
L 129.435213 -95.205099 
L 130.902319 -95.405989 
L 132.369426 -95.405989 
L 133.836532 -95.405989 
L 135.303638 -95.405989 
L 136.770745 -95.405989 
L 138.237851 -95.405989 
L 139.704957 -95.405989 
L 141.172063 -95.405989 
L 142.63917 -95.405989 
L 144.106276 -95.405989 
L 145.573382 -95.405989 
L 147.040489 -95.405989 
L 148.507595 -95.405989 
L 149.974701 -95.405989 
L 151.441808 -95.405989 
L 152.908914 -95.405989 
L 154.37602 -95.405989 
L 155.843126 -95.405989 
L 157.310233 -95.405989 
L 158.777339 -95.405989 
L 160.244445 -95.405989 
L 161.711552 -95.405989 
L 163.178658 -95.405989 
L 164.645764 -95.405989 
L 166.112871 -95.405989 
L 167.579977 -95.405989 
L 169.047083 -95.405989 
L 170.51419 -95.405989 
L 171.981296 -95.405989 
L 173.448402 -95.405989 
L 174.915508 -95.405989 
L 176.382615 -95.405989 
L 177.849721 -95.405989 
L 179.316827 -95.405989 
L 180.783934 -95.405989 
L 182.25104 -95.405989 
L 183.718146 -95.405989 
L 183.718146 -109.769593 
L 183.718146 -109.769593 
L 182.25104 -109.769593 
L 180.783934 -109.769593 
L 179.316827 -109.769593 
L 177.849721 -109.769593 
L 176.382615 -109.769593 
L 174.915508 -109.719371 
L 173.448402 -109.719371 
L 171.981296 -109.719371 
L 170.51419 -109.719371 
L 169.047083 -109.593815 
L 167.579977 -109.518481 
L 166.112871 -109.518481 
L 164.645764 -109.518481 
L 163.178658 -109.518481 
L 161.711552 -109.29248 
L 160.244445 -109.29248 
L 158.777339 -108.288032 
L 157.310233 -108.112254 
L 155.843126 -108.087143 
L 154.37602 -108.011809 
L 152.908914 -108.011809 
L 151.441808 -108.011809 
L 149.974701 -107.986698 
L 148.507595 -107.986698 
L 147.040489 -107.986698 
L 145.573382 -107.961587 
L 144.106276 -107.886253 
L 142.63917 -107.886253 
L 141.172063 -107.886253 
L 139.704957 -107.886253 
L 138.237851 -107.886253 
L 136.770745 -107.886253 
L 135.303638 -107.861142 
L 133.836532 -107.785809 
L 132.369426 -107.785809 
L 130.902319 -107.785809 
L 129.435213 -107.785809 
L 127.968107 -107.584919 
L 126.501 -107.584919 
L 125.033894 -107.459363 
L 123.566788 -107.459363 
L 122.099681 -107.233362 
L 120.632575 -106.957139 
L 119.165469 -106.957139 
L 117.698363 -106.932028 
L 116.231256 -106.932028 
L 114.76415 -106.932028 
L 113.297044 -106.932028 
L 111.829937 -106.932028 
L 110.362831 -106.856694 
L 108.895725 -106.856694 
L 107.428618 -106.756249 
L 105.961512 -106.756249 
L 104.494406 -106.12847 
L 103.0273 -100.277561 
L 101.560193 -100.277561 
L 100.093087 -100.076671 
L 98.625981 -100.076671 
L 97.158874 -99.348446 
L 95.691768 -98.720667 
L 94.224662 -97.289328 
L 92.757555 -97.289328 
L 91.290449 -97.138661 
L 89.823343 -97.138661 
L 88.356236 -97.138661 
L 86.88913 -97.138661 
L 85.422024 -97.138661 
L 83.954918 -97.138661 
L 82.487811 -96.812216 
L 81.020705 -96.812216 
L 79.553599 -96.812216 
L 78.086492 -96.636437 
L 76.619386 -93.949539 
L 75.15228 -93.899317 
L 73.685173 -93.823983 
L 72.218067 -93.723538 
L 70.750961 -93.572871 
L 69.283855 -93.296648 
L 67.816748 -93.045536 
L 66.349642 -92.49309 
L 64.882536 -91.363086 
L 63.415429 -89.253745 
L 61.948323 -86.918404 
L 60.481217 -86.014401 
L 59.01411 -85.913956 
L 57.547004 -85.085287 
L 56.079898 -85.085287 
L 54.612791 -85.085287 
L 53.145685 -85.085287 
L 51.678579 -85.085287 
L 50.211473 -84.884397 
L 48.744366 -84.708619 
L 47.27726 -84.708619 
L 45.810154 -84.30684 
L 44.343047 -81.042384 
z
" style="stroke: #ffbb78; stroke-opacity: 0.2"/>
    </defs>
    <g clip-path="url(#p95ec5f8e61)">
     <use xlink:href="#m09e5c16720" x="0" y="204.48" style="fill: #ffbb78; fill-opacity: 0.2; stroke: #ffbb78; stroke-opacity: 0.2"/>
    </g>
   </g>
   <g id="PolyCollection_5">
    <defs>
     <path id="m91ff4702d8" d="M 44.343047 -45.91182 
L 44.343047 -45.334262 
L 45.810154 -45.334262 
L 47.27726 -45.334262 
L 48.744366 -45.334262 
L 50.211473 -45.334262 
L 51.678579 -45.334262 
L 53.145685 -45.334262 
L 54.612791 -45.334262 
L 56.079898 -45.334262 
L 57.547004 -45.334262 
L 59.01411 -45.334262 
L 60.481217 -45.334262 
L 61.948323 -45.334262 
L 63.415429 -45.334262 
L 64.882536 -45.334262 
L 66.349642 -45.334262 
L 67.816748 -45.334262 
L 69.283855 -45.334262 
L 70.750961 -45.334262 
L 72.218067 -46.062487 
L 73.685173 -46.062487 
L 75.15228 -46.062487 
L 76.619386 -46.062487 
L 78.086492 -46.062487 
L 79.553599 -46.062487 
L 81.020705 -46.062487 
L 82.487811 -46.062487 
L 83.954918 -46.062487 
L 85.422024 -46.062487 
L 86.88913 -46.062487 
L 88.356236 -46.062487 
L 89.823343 -46.062487 
L 91.290449 -46.062487 
L 92.757555 -46.062487 
L 94.224662 -46.062487 
L 95.691768 -46.062487 
L 97.158874 -46.062487 
L 98.625981 -46.062487 
L 100.093087 -46.062487 
L 101.560193 -46.062487 
L 103.0273 -46.062487 
L 104.494406 -46.062487 
L 105.961512 -46.062487 
L 107.428618 -46.062487 
L 108.895725 -46.062487 
L 110.362831 -46.062487 
L 111.829937 -46.062487 
L 113.297044 -46.062487 
L 114.76415 -46.062487 
L 116.231256 -46.062487 
L 117.698363 -53.369845 
L 119.165469 -83.67906 
L 120.632575 -84.884397 
L 122.099681 -85.009953 
L 123.566788 -91.764865 
L 125.033894 -91.815087 
L 126.501 -92.342423 
L 127.968107 -92.417756 
L 129.435213 -92.71909 
L 130.902319 -93.045536 
L 132.369426 -94.577319 
L 133.836532 -94.577319 
L 135.303638 -94.577319 
L 136.770745 -95.983546 
L 138.237851 -104.446019 
L 139.704957 -105.09891 
L 141.172063 -105.450467 
L 142.63917 -106.480026 
L 144.106276 -108.011809 
L 145.573382 -108.112254 
L 147.040489 -108.112254 
L 148.507595 -108.112254 
L 149.974701 -108.4387 
L 151.441808 -108.564256 
L 152.908914 -108.765145 
L 154.37602 -108.840479 
L 155.843126 -108.86559 
L 157.310233 -109.242258 
L 158.777339 -109.468259 
L 160.244445 -109.769593 
L 161.711552 -110.271817 
L 163.178658 -110.397373 
L 164.645764 -110.447595 
L 166.112871 -110.447595 
L 167.579977 -110.497818 
L 169.047083 -110.799152 
L 170.51419 -111.025153 
L 171.981296 -114.364942 
L 173.448402 -114.390053 
L 174.915508 -114.54072 
L 176.382615 -115.143389 
L 177.849721 -115.871614 
L 179.316827 -116.549616 
L 180.783934 -116.976507 
L 182.25104 -117.67962 
L 183.718146 -118.282289 
L 183.718146 -125.112534 
L 183.718146 -125.112534 
L 182.25104 -125.112534 
L 180.783934 -125.112534 
L 179.316827 -125.087423 
L 177.849721 -125.087423 
L 176.382615 -125.087423 
L 174.915508 -125.087423 
L 173.448402 -125.087423 
L 171.981296 -125.087423 
L 170.51419 -125.087423 
L 169.047083 -125.037201 
L 167.579977 -125.037201 
L 166.112871 -125.037201 
L 164.645764 -124.986978 
L 163.178658 -124.986978 
L 161.711552 -124.986978 
L 160.244445 -124.936756 
L 158.777339 -124.936756 
L 157.310233 -124.836311 
L 155.843126 -124.534977 
L 154.37602 -124.434532 
L 152.908914 -124.434532 
L 151.441808 -124.434532 
L 149.974701 -124.208531 
L 148.507595 -124.208531 
L 147.040489 -124.208531 
L 145.573382 -124.208531 
L 144.106276 -124.208531 
L 142.63917 -124.208531 
L 141.172063 -123.907197 
L 139.704957 -123.907197 
L 138.237851 -123.882086 
L 136.770745 -123.831863 
L 135.303638 -123.831863 
L 133.836532 -123.681196 
L 132.369426 -122.777193 
L 130.902319 -122.425636 
L 129.435213 -122.400525 
L 127.968107 -122.274969 
L 126.501 -122.274969 
L 125.033894 -122.274969 
L 123.566788 -121.948523 
L 122.099681 -121.87319 
L 120.632575 -120.768297 
L 119.165469 -120.240962 
L 117.698363 -119.688516 
L 116.231256 -119.56296 
L 114.76415 -119.211403 
L 113.297044 -119.060736 
L 111.829937 -119.010513 
L 110.362831 -118.960291 
L 108.895725 -117.805176 
L 107.428618 -116.022281 
L 105.961512 -115.093167 
L 104.494406 -109.116702 
L 103.0273 -109.116702 
L 101.560193 -109.116702 
L 100.093087 -109.116702 
L 98.625981 -109.116702 
L 97.158874 -109.116702 
L 95.691768 -109.041368 
L 94.224662 -109.041368 
L 92.757555 -109.041368 
L 91.290449 -108.840479 
L 89.823343 -108.840479 
L 88.356236 -108.840479 
L 86.88913 -107.861142 
L 85.422024 -107.358918 
L 83.954918 -107.132917 
L 82.487811 -107.107806 
L 81.020705 -107.007361 
L 79.553599 -106.906917 
L 78.086492 -106.856694 
L 76.619386 -106.731138 
L 75.15228 -105.977802 
L 73.685173 -105.977802 
L 72.218067 -105.92758 
L 70.750961 -105.525801 
L 69.283855 -104.370686 
L 67.816748 -104.144685 
L 66.349642 -103.994018 
L 64.882536 -103.692683 
L 63.415429 -102.1609 
L 61.948323 -101.759121 
L 60.481217 -101.558232 
L 59.01411 -101.558232 
L 57.547004 -101.382453 
L 56.079898 -100.980674 
L 54.612791 -100.302672 
L 53.145685 -98.469555 
L 51.678579 -90.584639 
L 50.211473 -89.705747 
L 48.744366 -87.119294 
L 47.27726 -77.451483 
L 45.810154 -45.91182 
L 44.343047 -45.91182 
z
" style="stroke: #2ca02c; stroke-opacity: 0.2"/>
    </defs>
    <g clip-path="url(#p95ec5f8e61)">
     <use xlink:href="#m91ff4702d8" x="0" y="204.48" style="fill: #2ca02c; fill-opacity: 0.2; stroke: #2ca02c; stroke-opacity: 0.2"/>
    </g>
   </g>
   <g id="PolyCollection_6">
    <defs>
     <path id="mc32b4e308d" d="M 44.343047 -45.936931 
L 44.343047 -44.832038 
L 45.810154 -45.258929 
L 47.27726 -45.28404 
L 48.744366 -45.309151 
L 50.211473 -45.309151 
L 51.678579 -45.309151 
L 53.145685 -45.309151 
L 54.612791 -45.309151 
L 56.079898 -45.309151 
L 57.547004 -45.309151 
L 59.01411 -45.309151 
L 60.481217 -45.309151 
L 61.948323 -45.309151 
L 63.415429 -45.309151 
L 64.882536 -45.309151 
L 66.349642 -45.309151 
L 67.816748 -45.309151 
L 69.283855 -45.309151 
L 70.750961 -45.309151 
L 72.218067 -45.309151 
L 73.685173 -45.309151 
L 75.15228 -45.309151 
L 76.619386 -45.334262 
L 78.086492 -45.334262 
L 79.553599 -45.334262 
L 81.020705 -45.334262 
L 82.487811 -45.334262 
L 83.954918 -45.334262 
L 85.422024 -45.334262 
L 86.88913 -45.334262 
L 88.356236 -45.334262 
L 89.823343 -45.334262 
L 91.290449 -45.334262 
L 92.757555 -45.334262 
L 94.224662 -45.334262 
L 95.691768 -45.334262 
L 97.158874 -45.334262 
L 98.625981 -45.334262 
L 100.093087 -45.334262 
L 101.560193 -45.334262 
L 103.0273 -45.334262 
L 104.494406 -45.334262 
L 105.961512 -45.334262 
L 107.428618 -45.334262 
L 108.895725 -45.334262 
L 110.362831 -45.334262 
L 111.829937 -45.334262 
L 113.297044 -45.334262 
L 114.76415 -45.334262 
L 116.231256 -45.334262 
L 117.698363 -45.334262 
L 119.165469 -45.334262 
L 120.632575 -45.334262 
L 122.099681 -45.334262 
L 123.566788 -45.334262 
L 125.033894 -45.334262 
L 126.501 -45.334262 
L 127.968107 -45.334262 
L 129.435213 -45.334262 
L 130.902319 -45.334262 
L 132.369426 -45.334262 
L 133.836532 -45.334262 
L 135.303638 -45.334262 
L 136.770745 -45.334262 
L 138.237851 -45.334262 
L 139.704957 -45.334262 
L 141.172063 -45.334262 
L 142.63917 -45.334262 
L 144.106276 -45.334262 
L 145.573382 -45.334262 
L 147.040489 -45.334262 
L 148.507595 -45.334262 
L 149.974701 -45.334262 
L 151.441808 -45.334262 
L 152.908914 -45.334262 
L 154.37602 -45.334262 
L 155.843126 -45.334262 
L 157.310233 -45.334262 
L 158.777339 -45.334262 
L 160.244445 -45.334262 
L 161.711552 -45.334262 
L 163.178658 -45.334262 
L 164.645764 -45.334262 
L 166.112871 -45.334262 
L 167.579977 -45.334262 
L 169.047083 -45.334262 
L 170.51419 -45.334262 
L 171.981296 -45.334262 
L 173.448402 -45.334262 
L 174.915508 -45.334262 
L 176.382615 -45.334262 
L 177.849721 -45.334262 
L 179.316827 -45.334262 
L 180.783934 -45.334262 
L 182.25104 -45.334262 
L 183.718146 -45.334262 
L 183.718146 -46.388933 
L 183.718146 -46.388933 
L 182.25104 -46.388933 
L 180.783934 -46.388933 
L 179.316827 -46.388933 
L 177.849721 -46.388933 
L 176.382615 -46.388933 
L 174.915508 -46.388933 
L 173.448402 -46.388933 
L 171.981296 -46.388933 
L 170.51419 -46.388933 
L 169.047083 -46.388933 
L 167.579977 -46.388933 
L 166.112871 -46.388933 
L 164.645764 -46.388933 
L 163.178658 -46.388933 
L 161.711552 -46.388933 
L 160.244445 -46.388933 
L 158.777339 -46.388933 
L 157.310233 -46.388933 
L 155.843126 -46.388933 
L 154.37602 -46.388933 
L 152.908914 -46.388933 
L 151.441808 -46.388933 
L 149.974701 -46.388933 
L 148.507595 -46.388933 
L 147.040489 -46.388933 
L 145.573382 -46.388933 
L 144.106276 -46.388933 
L 142.63917 -46.388933 
L 141.172063 -46.388933 
L 139.704957 -46.388933 
L 138.237851 -46.388933 
L 136.770745 -46.388933 
L 135.303638 -46.388933 
L 133.836532 -46.388933 
L 132.369426 -46.388933 
L 130.902319 -46.388933 
L 129.435213 -46.388933 
L 127.968107 -46.388933 
L 126.501 -46.388933 
L 125.033894 -46.388933 
L 123.566788 -46.388933 
L 122.099681 -46.388933 
L 120.632575 -46.388933 
L 119.165469 -46.388933 
L 117.698363 -46.388933 
L 116.231256 -46.388933 
L 114.76415 -46.388933 
L 113.297044 -46.388933 
L 111.829937 -46.388933 
L 110.362831 -46.388933 
L 108.895725 -46.388933 
L 107.428618 -46.388933 
L 105.961512 -46.388933 
L 104.494406 -46.388933 
L 103.0273 -46.388933 
L 101.560193 -46.388933 
L 100.093087 -46.388933 
L 98.625981 -46.388933 
L 97.158874 -46.388933 
L 95.691768 -46.388933 
L 94.224662 -46.388933 
L 92.757555 -46.388933 
L 91.290449 -46.388933 
L 89.823343 -46.388933 
L 88.356236 -46.388933 
L 86.88913 -46.388933 
L 85.422024 -46.388933 
L 83.954918 -46.388933 
L 82.487811 -46.388933 
L 81.020705 -46.388933 
L 79.553599 -46.388933 
L 78.086492 -46.388933 
L 76.619386 -46.388933 
L 75.15228 -46.388933 
L 73.685173 -46.388933 
L 72.218067 -46.388933 
L 70.750961 -46.388933 
L 69.283855 -46.388933 
L 67.816748 -46.388933 
L 66.349642 -46.388933 
L 64.882536 -45.936931 
L 63.415429 -45.936931 
L 61.948323 -45.936931 
L 60.481217 -45.936931 
L 59.01411 -45.936931 
L 57.547004 -45.936931 
L 56.079898 -45.936931 
L 54.612791 -45.936931 
L 53.145685 -45.936931 
L 51.678579 -45.936931 
L 50.211473 -45.936931 
L 48.744366 -45.936931 
L 47.27726 -45.936931 
L 45.810154 -45.936931 
L 44.343047 -45.936931 
z
" style="stroke: #c5b0d5; stroke-opacity: 0.2"/>
    </defs>
    <g clip-path="url(#p95ec5f8e61)">
     <use xlink:href="#mc32b4e308d" x="0" y="204.48" style="fill: #c5b0d5; fill-opacity: 0.2; stroke: #c5b0d5; stroke-opacity: 0.2"/>
    </g>
   </g>
   <g id="PolyCollection_7">
    <defs>
     <path id="md5d0d155dd" d="M 44.343047 -121.170076 
L 44.343047 -83.704171 
L 45.810154 -123.404973 
L 47.27726 -123.430084 
L 48.744366 -125.23809 
L 50.211473 -126.443428 
L 51.678579 -127.774321 
L 53.145685 -128.050544 
L 54.612791 -128.050544 
L 56.079898 -128.326767 
L 57.547004 -128.653213 
L 59.01411 -128.653213 
L 60.481217 -128.653213 
L 61.948323 -128.653213 
L 63.415429 -128.653213 
L 64.882536 -128.653213 
L 66.349642 -128.678324 
L 67.816748 -128.678324 
L 69.283855 -128.879214 
L 70.750961 -128.929436 
L 72.218067 -129.883662 
L 73.685173 -130.837887 
L 75.15228 -131.139221 
L 76.619386 -131.892557 
L 78.086492 -132.093447 
L 79.553599 -132.093447 
L 81.020705 -132.093447 
L 82.487811 -132.093447 
L 83.954918 -132.093447 
L 85.422024 -132.093447 
L 86.88913 -132.093447 
L 88.356236 -132.319448 
L 89.823343 -132.319448 
L 91.290449 -132.319448 
L 92.757555 -132.319448 
L 94.224662 -132.520337 
L 95.691768 -132.520337 
L 97.158874 -132.922116 
L 98.625981 -132.922116 
L 100.093087 -134.152565 
L 101.560193 -137.366798 
L 103.0273 -139.375694 
L 104.494406 -140.229475 
L 105.961512 -149.897285 
L 107.428618 -150.19862 
L 108.895725 -150.19862 
L 110.362831 -150.349287 
L 111.829937 -150.926844 
L 113.297044 -151.0524 
L 114.76415 -151.177956 
L 116.231256 -152.08196 
L 117.698363 -152.533961 
L 119.165469 -152.684628 
L 120.632575 -153.814632 
L 122.099681 -154.341967 
L 123.566788 -154.367078 
L 125.033894 -154.467523 
L 126.501 -154.793969 
L 127.968107 -154.894414 
L 129.435213 -154.894414 
L 130.902319 -156.752642 
L 132.369426 -157.053976 
L 133.836532 -157.531089 
L 135.303638 -157.782201 
L 136.770745 -157.983091 
L 138.237851 -157.983091 
L 139.704957 -158.259314 
L 141.172063 -159.113095 
L 142.63917 -159.238651 
L 144.106276 -159.414429 
L 145.573382 -159.464651 
L 147.040489 -159.489763 
L 148.507595 -159.590207 
L 149.974701 -159.615319 
L 151.441808 -159.615319 
L 152.908914 -159.64043 
L 154.37602 -159.64043 
L 155.843126 -160.418877 
L 157.310233 -160.418877 
L 158.777339 -160.519322 
L 160.244445 -160.519322 
L 161.711552 -160.519322 
L 163.178658 -160.644878 
L 164.645764 -160.870878 
L 166.112871 -161.046657 
L 167.579977 -161.197324 
L 169.047083 -161.197324 
L 170.51419 -161.197324 
L 171.981296 -161.247546 
L 173.448402 -161.297769 
L 174.915508 -161.297769 
L 176.382615 -161.297769 
L 177.849721 -161.32288 
L 179.316827 -161.32288 
L 180.783934 -161.32288 
L 182.25104 -161.32288 
L 182.25104 -171.116247 
L 182.25104 -171.116247 
L 180.783934 -171.116247 
L 179.316827 -171.066024 
L 177.849721 -170.3378 
L 176.382615 -170.3378 
L 174.915508 -170.237355 
L 173.448402 -170.086688 
L 171.981296 -169.93602 
L 170.51419 -169.885798 
L 169.047083 -169.835576 
L 167.579977 -169.534241 
L 166.112871 -168.931573 
L 164.645764 -168.153125 
L 163.178658 -168.153125 
L 161.711552 -167.751346 
L 160.244445 -167.500234 
L 158.777339 -167.299345 
L 157.310233 -167.148678 
L 155.843126 -166.847343 
L 154.37602 -166.721787 
L 152.908914 -166.721787 
L 151.441808 -166.671565 
L 149.974701 -166.621342 
L 148.507595 -166.57112 
L 147.040489 -166.420453 
L 145.573382 -166.420453 
L 144.106276 -166.194452 
L 142.63917 -166.194452 
L 141.172063 -166.119119 
L 139.704957 -166.119119 
L 138.237851 -166.119119 
L 136.770745 -166.094007 
L 135.303638 -166.094007 
L 133.836532 -166.094007 
L 132.369426 -166.068896 
L 130.902319 -165.792673 
L 129.435213 -165.792673 
L 127.968107 -165.792673 
L 126.501 -165.742451 
L 125.033894 -165.692228 
L 123.566788 -165.692228 
L 122.099681 -165.340671 
L 120.632575 -164.913781 
L 119.165469 -164.68778 
L 117.698363 -164.160445 
L 116.231256 -163.457332 
L 114.76415 -163.43222 
L 113.297044 -163.381998 
L 111.829937 -162.628662 
L 110.362831 -162.427773 
L 108.895725 -162.327328 
L 107.428618 -162.327328 
L 105.961512 -162.327328 
L 104.494406 -162.302217 
L 103.0273 -161.925549 
L 101.560193 -161.398214 
L 100.093087 -161.347991 
L 98.625981 -161.071768 
L 97.158874 -160.644878 
L 95.691768 -160.192876 
L 94.224662 -160.042209 
L 92.757555 -151.027289 
L 91.290449 -150.675733 
L 89.823343 -150.098175 
L 88.356236 -149.319728 
L 86.88913 -149.319728 
L 85.422024 -149.319728 
L 83.954918 -149.319728 
L 82.487811 -149.269506 
L 81.020705 -148.717059 
L 79.553599 -148.691948 
L 78.086492 -148.440836 
L 76.619386 -148.440836 
L 75.15228 -148.11439 
L 73.685173 -148.089279 
L 72.218067 -147.938612 
L 70.750961 -147.938612 
L 69.283855 -147.762834 
L 67.816748 -147.461499 
L 66.349642 -147.335943 
L 64.882536 -147.335943 
L 63.415429 -146.808608 
L 61.948323 -146.783497 
L 60.481217 -146.683052 
L 59.01411 -146.482163 
L 57.547004 -145.276825 
L 56.079898 -144.347711 
L 54.612791 -143.418597 
L 53.145685 -142.916373 
L 51.678579 -142.363926 
L 50.211473 -139.601695 
L 48.744366 -139.174804 
L 47.27726 -137.19102 
L 45.810154 -133.223451 
L 44.343047 -121.170076 
z
" style="stroke: #8c564b; stroke-opacity: 0.2"/>
    </defs>
    <g clip-path="url(#p95ec5f8e61)">
     <use xlink:href="#md5d0d155dd" x="0" y="204.48" style="fill: #8c564b; fill-opacity: 0.2; stroke: #8c564b; stroke-opacity: 0.2"/>
    </g>
   </g>
   <g id="line2d_10">
    <path d="M 44.343047 102.846435 
L 45.810154 77.258125 
L 47.27726 73.90578 
L 48.744366 71.73994 
L 50.211473 66.824423 
L 51.678579 65.92042 
L 53.145685 65.637919 
L 54.612791 65.267529 
L 56.079898 64.821805 
L 57.547004 63.836191 
L 59.01411 59.21573 
L 60.481217 56.736 
L 61.948323 54.28138 
L 63.415429 52.806097 
L 64.882536 52.523596 
L 66.349642 51.330815 
L 67.816748 51.016925 
L 69.283855 50.571201 
L 70.750961 49.880643 
L 72.218067 49.824143 
L 73.685173 49.71742 
L 75.15228 49.591864 
L 76.619386 49.353308 
L 78.086492 49.23403 
L 79.553599 49.070807 
L 81.020705 48.643917 
L 82.487811 48.417916 
L 83.954918 47.821525 
L 85.422024 47.382079 
L 86.88913 46.339964 
L 88.356236 46.013519 
L 89.823343 45.115793 
L 91.290449 44.757959 
L 92.757555 44.594736 
L 94.224662 44.349902 
L 95.691768 44.149012 
L 97.158874 43.879067 
L 98.625981 43.872789 
L 100.093087 43.715844 
L 101.560193 42.21545 
L 103.0273 41.838782 
L 104.494406 41.719504 
L 105.961512 41.550003 
L 107.428618 41.280058 
L 108.895725 40.872001 
L 110.362831 40.721334 
L 111.829937 40.614611 
L 113.297044 39.898942 
L 114.76415 39.767109 
L 116.231256 39.503441 
L 117.698363 39.365329 
L 119.165469 39.227218 
L 120.632575 38.976106 
L 122.099681 38.85055 
L 123.566788 38.492715 
L 125.033894 38.128603 
L 126.501 38.084658 
L 127.968107 38.065825 
L 129.435213 38.034436 
L 130.902319 38.02188 
L 132.369426 37.751935 
L 133.836532 37.70799 
L 135.303638 37.582434 
L 136.770745 37.582434 
L 138.237851 37.507101 
L 139.704957 37.475712 
L 141.172063 37.243433 
L 142.63917 37.02371 
L 144.106276 36.797709 
L 145.573382 36.690987 
L 147.040489 36.615653 
L 148.507595 36.496375 
L 149.974701 36.314319 
L 151.441808 36.000429 
L 152.908914 35.793262 
L 154.37602 35.743039 
L 155.843126 35.71165 
L 157.310233 35.686539 
L 158.777339 35.560983 
L 160.244445 35.052481 
L 161.711552 34.889259 
L 163.178658 34.788814 
L 164.645764 34.726036 
L 166.112871 34.556535 
L 167.579977 34.405868 
L 169.047083 34.173589 
L 170.51419 33.71531 
L 171.981296 33.45792 
L 173.448402 33.332364 
L 174.915508 33.300975 
L 176.382615 33.106364 
L 177.849721 33.037308 
L 179.316827 32.97453 
L 180.783934 32.892918 
L 182.25104 32.83014 
L 183.718146 32.823863 
L 185.185253 32.823863 
L 186.652359 32.591584 
L 188.119465 32.591584 
" clip-path="url(#p95ec5f8e61)" style="fill: none; stroke: #c49c94; stroke-width: 3; stroke-linecap: round"/>
   </g>
   <g id="line2d_11"/>
   <g id="line2d_12">
    <path d="M 44.343047 158.56818 
L 45.810154 158.56818 
L 47.27726 158.56818 
L 48.744366 138.881002 
L 50.211473 125.446512 
L 51.678579 124.341619 
L 53.145685 116.029813 
L 54.612791 115.828923 
L 56.079898 115.351811 
L 57.547004 114.623586 
L 59.01411 112.413801 
L 60.481217 112.212911 
L 61.948323 112.112466 
L 63.415429 112.062244 
L 64.882536 111.861354 
L 66.349642 111.334019 
L 67.816748 110.128682 
L 69.283855 110.028237 
L 70.750961 109.927792 
L 72.218067 109.902681 
L 73.685173 109.777125 
L 75.15228 106.512669 
L 76.619386 106.186224 
L 78.086492 100.837539 
L 79.553599 100.159537 
L 81.020705 100.008869 
L 82.487811 99.60709 
L 83.954918 99.556868 
L 85.422024 99.305756 
L 86.88913 99.1802 
L 88.356236 99.155089 
L 89.823343 99.129978 
L 91.290449 99.054644 
L 92.757555 99.004422 
L 94.224662 98.853754 
L 95.691768 98.703087 
L 97.158874 89.838835 
L 98.625981 88.332163 
L 100.093087 87.955495 
L 101.560193 87.905273 
L 103.0273 87.804828 
L 104.494406 87.729494 
L 105.961512 87.453271 
L 107.428618 86.37349 
L 108.895725 85.770821 
L 110.362831 85.595043 
L 111.829937 85.519709 
L 113.297044 85.469487 
L 114.76415 85.444375 
L 116.231256 85.218375 
L 117.698363 85.218375 
L 119.165469 85.042596 
L 120.632575 84.665928 
L 122.099681 84.213927 
L 123.566788 84.188816 
L 125.033894 83.912592 
L 126.501 83.912592 
L 127.968107 83.912592 
L 129.435213 83.761925 
L 130.902319 83.761925 
L 132.369426 83.66148 
L 133.836532 83.66148 
L 135.303638 83.460591 
L 136.770745 83.410368 
L 138.237851 83.335035 
L 139.704957 83.209479 
L 141.172063 83.184368 
L 142.63917 83.184368 
L 144.106276 83.184368 
L 145.573382 83.184368 
L 147.040489 83.184368 
L 148.507595 83.184368 
L 149.974701 83.184368 
L 151.441808 83.159256 
L 152.908914 83.159256 
L 154.37602 83.159256 
L 155.843126 83.134145 
L 157.310233 83.134145 
L 158.777339 83.109034 
L 160.244445 83.109034 
L 161.711552 83.109034 
L 163.178658 83.0337 
L 164.645764 83.0337 
L 166.112871 83.0337 
L 167.579977 83.0337 
L 169.047083 83.0337 
L 170.51419 83.0337 
L 171.981296 83.008589 
L 173.448402 81.953919 
L 174.915508 81.953919 
L 176.382615 81.602362 
L 177.849721 81.326139 
L 179.316827 81.326139 
L 180.783934 81.326139 
L 182.25104 81.075027 
L 183.718146 80.823915 
L 185.185253 80.823915 
L 186.652359 79.769245 
L 188.119465 79.6688 
" clip-path="url(#p95ec5f8e61)" style="fill: none; stroke: #aec7e8; stroke-width: 1.2; stroke-linecap: round"/>
   </g>
   <g id="line2d_13"/>
   <g id="line2d_14">
    <path d="M 44.343047 158.216623 
L 45.810154 157.814844 
L 47.27726 157.814844 
L 48.744366 143.966019 
L 50.211473 139.37067 
L 51.678579 138.680112 
L 53.145685 137.964443 
L 54.612791 137.838887 
L 56.079898 137.813776 
L 57.547004 137.524997 
L 59.01411 137.499886 
L 60.481217 137.474775 
L 61.948323 137.424553 
L 63.415429 137.424553 
L 64.882536 137.424553 
L 66.349642 137.424553 
L 67.816748 137.424553 
L 69.283855 124.077951 
L 70.750961 120.235938 
L 72.218067 116.845927 
L 73.685173 114.849587 
L 75.15228 114.447808 
L 76.619386 113.845139 
L 78.086492 113.24247 
L 79.553599 113.091803 
L 81.020705 112.916025 
L 82.487811 112.916025 
L 83.954918 110.19146 
L 85.422024 107.429228 
L 86.88913 98.75331 
L 88.356236 97.874418 
L 89.823343 95.18752 
L 91.290449 95.174964 
L 92.757555 95.09963 
L 94.224662 94.04496 
L 95.691768 93.894293 
L 97.158874 93.894293 
L 98.625981 93.869182 
L 100.093087 93.580403 
L 101.560193 92.638733 
L 103.0273 92.450399 
L 104.494406 92.287176 
L 105.961512 92.24951 
L 107.428618 91.797508 
L 108.895725 91.759841 
L 110.362831 91.395729 
L 111.829937 91.395729 
L 113.297044 91.345507 
L 114.76415 91.044172 
L 116.231256 91.019061 
L 117.698363 90.99395 
L 119.165469 90.99395 
L 120.632575 90.99395 
L 122.099681 90.755393 
L 123.566788 90.755393 
L 125.033894 90.617282 
L 126.501 90.441503 
L 127.968107 90.089947 
L 129.435213 89.989502 
L 130.902319 89.989502 
L 132.369426 89.914168 
L 133.836532 89.838835 
L 135.303638 89.788612 
L 136.770745 89.788612 
L 138.237851 89.725834 
L 139.704957 89.587723 
L 141.172063 89.123166 
L 142.63917 89.098054 
L 144.106276 88.721387 
L 145.573382 88.520497 
L 147.040489 88.507941 
L 148.507595 88.495386 
L 149.974701 88.382385 
L 151.441808 88.344719 
L 152.908914 88.344719 
L 154.37602 88.244274 
L 155.843126 88.244274 
L 157.310233 88.244274 
L 158.777339 88.194051 
L 160.244445 88.131273 
L 161.711552 87.603938 
L 163.178658 87.553716 
L 164.645764 87.415604 
L 166.112871 87.390493 
L 167.579977 87.327715 
L 169.047083 87.302604 
L 170.51419 87.214715 
L 171.981296 87.089159 
L 173.448402 87.013825 
L 174.915508 86.863158 
L 176.382615 86.850602 
L 177.849721 86.825491 
L 179.316827 86.80038 
L 180.783934 86.775269 
L 182.25104 86.699935 
L 183.718146 86.68738 
L 185.185253 86.37349 
L 186.652359 85.821043 
L 188.119465 85.821043 
" clip-path="url(#p95ec5f8e61)" style="fill: none; stroke: #ff9896; stroke-width: 1.2; stroke-linecap: round"/>
   </g>
   <g id="line2d_15"/>
   <g id="line2d_16">
    <path d="M 44.343047 141.002898 
L 45.810154 139.37067 
L 47.27726 127.631186 
L 48.744366 124.617842 
L 50.211473 122.583835 
L 51.678579 121.792833 
L 53.145685 121.792833 
L 54.612791 121.792833 
L 56.079898 121.604499 
L 57.547004 120.863718 
L 59.01411 120.449384 
L 60.481217 120.399161 
L 61.948323 119.94716 
L 63.415429 118.779489 
L 64.882536 117.159817 
L 66.349642 116.481814 
L 67.816748 116.105147 
L 69.283855 114.975143 
L 70.750961 114.761698 
L 72.218067 114.435252 
L 73.685173 114.38503 
L 75.15228 113.342915 
L 76.619386 113.317804 
L 78.086492 109.174456 
L 79.553599 109.036345 
L 81.020705 108.961011 
L 82.487811 108.961011 
L 83.954918 108.772677 
L 85.422024 108.772677 
L 86.88913 108.747566 
L 88.356236 108.697344 
L 89.823343 108.697344 
L 91.290449 108.370898 
L 92.757555 108.295564 
L 94.224662 108.295564 
L 95.691768 107.579895 
L 97.158874 107.266005 
L 98.625981 106.901893 
L 100.093087 106.901893 
L 101.560193 106.801448 
L 103.0273 106.801448 
L 104.494406 103.850883 
L 105.961512 103.536993 
L 107.428618 103.536993 
L 108.895725 103.48677 
L 110.362831 103.48677 
L 111.829937 103.449103 
L 113.297044 103.436548 
L 114.76415 103.436548 
L 116.231256 103.436548 
L 117.698363 103.436548 
L 119.165469 103.423992 
L 120.632575 103.423992 
L 122.099681 103.285881 
L 123.566788 103.17288 
L 125.033894 103.17288 
L 126.501 103.110102 
L 127.968107 103.084991 
L 129.435213 102.984546 
L 130.902319 102.884101 
L 132.369426 102.884101 
L 133.836532 102.884101 
L 135.303638 102.846435 
L 136.770745 102.833879 
L 138.237851 102.833879 
L 139.704957 102.833879 
L 141.172063 102.833879 
L 142.63917 102.833879 
L 144.106276 102.833879 
L 145.573382 102.796212 
L 147.040489 102.783657 
L 148.507595 102.783657 
L 149.974701 102.783657 
L 151.441808 102.771101 
L 152.908914 102.771101 
L 154.37602 102.771101 
L 155.843126 102.733434 
L 157.310233 102.720879 
L 158.777339 102.632989 
L 160.244445 102.130766 
L 161.711552 102.130766 
L 163.178658 102.017765 
L 164.645764 102.017765 
L 166.112871 102.017765 
L 167.579977 102.017765 
L 169.047083 101.980098 
L 170.51419 101.91732 
L 171.981296 101.91732 
L 173.448402 101.91732 
L 174.915508 101.91732 
L 176.382615 101.892209 
L 177.849721 101.892209 
L 179.316827 101.892209 
L 180.783934 101.892209 
L 182.25104 101.892209 
L 183.718146 101.892209 
L 185.185253 108.973567 
L 186.652359 108.948455 
L 188.119465 108.948455 
" clip-path="url(#p95ec5f8e61)" style="fill: none; stroke: #ffbb78; stroke-width: 1.2; stroke-linecap: round"/>
   </g>
   <g id="line2d_17"/>
   <g id="line2d_18">
    <path d="M 44.343047 158.856959 
L 45.810154 158.856959 
L 47.27726 143.087127 
L 48.744366 138.253222 
L 50.211473 136.959995 
L 51.678579 136.520549 
L 53.145685 132.578092 
L 54.612791 131.661533 
L 56.079898 131.322532 
L 57.547004 131.121642 
L 59.01411 131.033753 
L 60.481217 131.033753 
L 61.948323 130.933308 
L 63.415429 130.732419 
L 64.882536 129.966527 
L 66.349642 129.81586 
L 67.816748 129.740526 
L 69.283855 129.627526 
L 70.750961 129.049968 
L 72.218067 128.484967 
L 73.685173 128.459855 
L 75.15228 128.459855 
L 76.619386 128.083187 
L 78.086492 128.020409 
L 79.553599 127.995298 
L 81.020705 127.945076 
L 82.487811 127.894853 
L 83.954918 127.882298 
L 85.422024 127.769297 
L 86.88913 127.518185 
L 88.356236 127.028517 
L 89.823343 127.028517 
L 91.290449 127.028517 
L 92.757555 126.928072 
L 94.224662 126.928072 
L 95.691768 126.928072 
L 97.158874 126.890406 
L 98.625981 126.890406 
L 100.093087 126.890406 
L 101.560193 126.890406 
L 103.0273 126.890406 
L 104.494406 126.890406 
L 105.961512 123.902173 
L 107.428618 123.437616 
L 108.895725 122.546168 
L 110.362831 121.968611 
L 111.829937 121.9435 
L 113.297044 121.918389 
L 114.76415 121.843055 
L 116.231256 121.667277 
L 117.698363 117.950819 
L 119.165469 102.519989 
L 120.632575 101.653653 
L 122.099681 101.038429 
L 123.566788 97.623306 
L 125.033894 97.434972 
L 126.501 97.171304 
L 127.968107 97.133637 
L 129.435213 96.920192 
L 130.902319 96.744414 
L 132.369426 95.802744 
L 133.836532 95.350742 
L 135.303638 95.275409 
L 136.770745 94.572295 
L 138.237851 90.315948 
L 139.704957 89.976946 
L 141.172063 89.801168 
L 142.63917 89.135721 
L 144.106276 88.36983 
L 145.573382 88.319607 
L 147.040489 88.319607 
L 148.507595 88.319607 
L 149.974701 88.156385 
L 151.441808 87.980606 
L 152.908914 87.880161 
L 154.37602 87.842495 
L 155.843126 87.779717 
L 157.310233 87.440715 
L 158.777339 87.277493 
L 160.244445 87.126826 
L 161.711552 86.850602 
L 163.178658 86.787824 
L 164.645764 86.762713 
L 166.112871 86.737602 
L 167.579977 86.712491 
L 169.047083 86.561824 
L 170.51419 86.423712 
L 171.981296 84.753817 
L 173.448402 84.741262 
L 174.915508 84.665928 
L 176.382615 84.364594 
L 177.849721 84.000482 
L 179.316827 83.66148 
L 180.783934 83.43548 
L 182.25104 83.083923 
L 183.718146 82.782588 
L 185.185253 79.367466 
L 186.652359 79.367466 
L 188.119465 79.367466 
" clip-path="url(#p95ec5f8e61)" style="fill: none; stroke: #2ca02c; stroke-width: 1.2; stroke-linecap: round"/>
   </g>
   <g id="line2d_19"/>
   <g id="line2d_20">
    <path d="M 44.343047 159.095515 
L 45.810154 158.88207 
L 47.27726 158.869515 
L 48.744366 158.856959 
L 50.211473 158.856959 
L 51.678579 158.856959 
L 53.145685 158.856959 
L 54.612791 158.856959 
L 56.079898 158.856959 
L 57.547004 158.856959 
L 59.01411 158.856959 
L 60.481217 158.856959 
L 61.948323 158.856959 
L 63.415429 158.856959 
L 64.882536 158.856959 
L 66.349642 158.630958 
L 67.816748 158.630958 
L 69.283855 158.630958 
L 70.750961 158.630958 
L 72.218067 158.630958 
L 73.685173 158.630958 
L 75.15228 158.630958 
L 76.619386 158.618403 
L 78.086492 158.618403 
L 79.553599 158.618403 
L 81.020705 158.618403 
L 82.487811 158.618403 
L 83.954918 158.618403 
L 85.422024 158.618403 
L 86.88913 158.618403 
L 88.356236 158.618403 
L 89.823343 158.618403 
L 91.290449 158.618403 
L 92.757555 158.618403 
L 94.224662 158.618403 
L 95.691768 158.618403 
L 97.158874 158.618403 
L 98.625981 158.618403 
L 100.093087 158.618403 
L 101.560193 158.618403 
L 103.0273 158.618403 
L 104.494406 158.618403 
L 105.961512 158.618403 
L 107.428618 158.618403 
L 108.895725 158.618403 
L 110.362831 158.618403 
L 111.829937 158.618403 
L 113.297044 158.618403 
L 114.76415 158.618403 
L 116.231256 158.618403 
L 117.698363 158.618403 
L 119.165469 158.618403 
L 120.632575 158.618403 
L 122.099681 158.618403 
L 123.566788 158.618403 
L 125.033894 158.618403 
L 126.501 158.618403 
L 127.968107 158.618403 
L 129.435213 158.618403 
L 130.902319 158.618403 
L 132.369426 158.618403 
L 133.836532 158.618403 
L 135.303638 158.618403 
L 136.770745 158.618403 
L 138.237851 158.618403 
L 139.704957 158.618403 
L 141.172063 158.618403 
L 142.63917 158.618403 
L 144.106276 158.618403 
L 145.573382 158.618403 
L 147.040489 158.618403 
L 148.507595 158.618403 
L 149.974701 158.618403 
L 151.441808 158.618403 
L 152.908914 158.618403 
L 154.37602 158.618403 
L 155.843126 158.618403 
L 157.310233 158.618403 
L 158.777339 158.618403 
L 160.244445 158.618403 
L 161.711552 158.618403 
L 163.178658 158.618403 
L 164.645764 158.618403 
L 166.112871 158.618403 
L 167.579977 158.618403 
L 169.047083 158.618403 
L 170.51419 158.618403 
L 171.981296 158.618403 
L 173.448402 158.618403 
L 174.915508 158.618403 
L 176.382615 158.618403 
L 177.849721 158.618403 
L 179.316827 158.618403 
L 180.783934 158.618403 
L 182.25104 158.618403 
L 183.718146 158.618403 
L 185.185253 158.091067 
L 186.652359 158.091067 
L 188.119465 158.091067 
" clip-path="url(#p95ec5f8e61)" style="fill: none; stroke: #c5b0d5; stroke-width: 1.2; stroke-linecap: round"/>
   </g>
   <g id="line2d_21"/>
   <g id="line2d_22">
    <path d="M 44.343047 102.042876 
L 45.810154 76.165788 
L 47.27726 74.169448 
L 48.744366 72.273553 
L 50.211473 71.457439 
L 51.678579 69.410876 
L 53.145685 68.996541 
L 54.612791 68.74543 
L 56.079898 68.142761 
L 57.547004 67.514981 
L 59.01411 66.912312 
L 60.481217 66.811867 
L 61.948323 66.761645 
L 63.415429 66.749089 
L 64.882536 66.485422 
L 66.349642 66.472866 
L 67.816748 66.410088 
L 69.283855 66.158976 
L 70.750961 66.045976 
L 72.218067 65.568863 
L 73.685173 65.016417 
L 75.15228 64.853194 
L 76.619386 64.313303 
L 78.086492 64.212859 
L 79.553599 64.087303 
L 81.020705 64.074747 
L 82.487811 63.798524 
L 83.954918 63.773413 
L 85.422024 63.773413 
L 86.88913 63.773413 
L 88.356236 63.660412 
L 89.823343 63.271189 
L 91.290449 62.98241 
L 92.757555 62.806632 
L 94.224662 58.198727 
L 95.691768 58.123393 
L 97.158874 57.696503 
L 98.625981 57.483058 
L 100.093087 56.729722 
L 101.560193 55.097494 
L 103.0273 53.829379 
L 104.494406 53.214154 
L 105.961512 48.367693 
L 107.428618 48.217026 
L 108.895725 48.217026 
L 110.362831 48.09147 
L 111.829937 47.702247 
L 113.297044 47.262801 
L 114.76415 47.174912 
L 116.231256 46.710354 
L 117.698363 46.132797 
L 119.165469 45.793796 
L 120.632575 45.115793 
L 122.099681 44.638681 
L 123.566788 44.450347 
L 125.033894 44.400124 
L 126.501 44.21179 
L 127.968107 44.136457 
L 129.435213 44.136457 
L 130.902319 43.207342 
L 132.369426 42.918564 
L 133.836532 42.667452 
L 135.303638 42.541896 
L 136.770745 42.441451 
L 138.237851 42.428895 
L 139.704957 42.290784 
L 141.172063 41.863893 
L 142.63917 41.763449 
L 144.106276 41.675559 
L 145.573382 41.537448 
L 147.040489 41.524892 
L 148.507595 41.399336 
L 149.974701 41.36167 
L 151.441808 41.336558 
L 152.908914 41.298892 
L 154.37602 41.298892 
L 155.843126 40.84689 
L 157.310233 40.696223 
L 158.777339 40.570667 
L 160.244445 40.470222 
L 161.711552 40.344666 
L 163.178658 40.080998 
L 164.645764 39.967998 
L 166.112871 39.490885 
L 167.579977 39.114217 
L 169.047083 38.96355 
L 170.51419 38.938439 
L 171.981296 38.888217 
L 173.448402 38.787772 
L 174.915508 38.712438 
L 176.382615 38.662216 
L 177.849721 38.64966 
L 179.316827 38.285548 
L 180.783934 38.260437 
L 182.25104 38.260437 
L 183.718146 43.15712 
" clip-path="url(#p95ec5f8e61)" style="fill: none; stroke: #8c564b; stroke-width: 1.2; stroke-linecap: round"/>
   </g>
   <g id="line2d_23"/>
   <g id="patch_3">
    <path d="M 42.875941 166.212656 
L 42.875941 21.789375 
" style="fill: none; stroke: #ffffff; stroke-width: 1.25; stroke-linejoin: miter; stroke-linecap: square"/>
   </g>
   <g id="patch_4">
    <path d="M 42.875941 166.212656 
L 183.718146 166.212656 
" style="fill: none; stroke: #ffffff; stroke-width: 1.25; stroke-linejoin: miter; stroke-linecap: square"/>
   </g>
   <g id="text_12">
    <text style="fill: #262626; font: 12px 'Arial', 'DejaVu Sans', 'Liberation Sans', 'Bitstream Vera Sans', sans-serif; text-anchor: middle" x="113.297044" y="15.789375" transform="rotate(-0 113.297044 15.789375)">exiv2</text>
   </g>
  </g>
  <g id="legend_1">
   <g id="line2d_24">
    <path d="M 207.195178 52.30375 
L 218.195178 52.30375 
L 229.195178 52.30375 
" style="fill: none; stroke: #c49c94; stroke-width: 3; stroke-linecap: round"/>
   </g>
   <g id="text_13">
    <text style="fill: #262626; font: 11px 'Arial', 'DejaVu Sans', 'Liberation Sans', 'Bitstream Vera Sans', sans-serif; text-anchor: start" x="237.995178" y="56.15375" transform="rotate(-0 237.995178 56.15375)">autofz</text>
   </g>
   <g id="line2d_25">
    <path d="M 207.195178 67.863594 
L 218.195178 67.863594 
L 229.195178 67.863594 
" style="fill: none; stroke: #8c564b; stroke-width: 1.2; stroke-linecap: round"/>
   </g>
   <g id="text_14">
    <text style="fill: #262626; font: 11px 'Arial', 'DejaVu Sans', 'Liberation Sans', 'Bitstream Vera Sans', sans-serif; text-anchor: start" x="237.995178" y="71.713594" transform="rotate(-0 237.995178 71.713594)">RedQueen</text>
   </g>
   <g id="line2d_26">
    <path d="M 207.195178 83.423438 
L 218.195178 83.423438 
L 229.195178 83.423438 
" style="fill: none; stroke: #aec7e8; stroke-width: 1.2; stroke-linecap: round"/>
   </g>
   <g id="text_15">
    <text style="fill: #262626; font: 11px 'Arial', 'DejaVu Sans', 'Liberation Sans', 'Bitstream Vera Sans', sans-serif; text-anchor: start" x="237.995178" y="87.273438" transform="rotate(-0 237.995178 87.273438)">AFLFast</text>
   </g>
   <g id="line2d_27">
    <path d="M 207.195178 98.983281 
L 218.195178 98.983281 
L 229.195178 98.983281 
" style="fill: none; stroke: #2ca02c; stroke-width: 1.2; stroke-linecap: round"/>
   </g>
   <g id="text_16">
    <text style="fill: #262626; font: 11px 'Arial', 'DejaVu Sans', 'Liberation Sans', 'Bitstream Vera Sans', sans-serif; text-anchor: start" x="237.995178" y="102.833281" transform="rotate(-0 237.995178 102.833281)">LAF-Intel</text>
   </g>
   <g id="line2d_28">
    <path d="M 207.195178 114.684063 
L 218.195178 114.684063 
L 229.195178 114.684063 
" style="fill: none; stroke: #ff9896; stroke-width: 1.2; stroke-linecap: round"/>
   </g>
   <g id="text_17">
    <text style="fill: #262626; font: 11px 'Arial', 'DejaVu Sans', 'Liberation Sans', 'Bitstream Vera Sans', sans-serif; text-anchor: start" x="237.995178" y="118.534063" transform="rotate(-0 237.995178 118.534063)">MOpt</text>
   </g>
   <g id="line2d_29">
    <path d="M 207.195178 130.243906 
L 218.195178 130.243906 
L 229.195178 130.243906 
" style="fill: none; stroke: #ffbb78; stroke-width: 1.2; stroke-linecap: round"/>
   </g>
   <g id="text_18">
    <text style="fill: #262626; font: 11px 'Arial', 'DejaVu Sans', 'Liberation Sans', 'Bitstream Vera Sans', sans-serif; text-anchor: start" x="237.995178" y="134.093906" transform="rotate(-0 237.995178 134.093906)">FairFuzz</text>
   </g>
   <g id="line2d_30">
    <path d="M 207.195178 145.80375 
L 218.195178 145.80375 
L 229.195178 145.80375 
" style="fill: none; stroke: #c5b0d5; stroke-width: 1.2; stroke-linecap: round"/>
   </g>
   <g id="text_19">
    <text style="fill: #262626; font: 11px 'Arial', 'DejaVu Sans', 'Liberation Sans', 'Bitstream Vera Sans', sans-serif; text-anchor: start" x="237.995178" y="149.65375" transform="rotate(-0 237.995178 149.65375)">Radamsa</text>
   </g>
  </g>
 </g>
 <defs>
  <clipPath id="p95ec5f8e61">
   <rect x="42.875941" y="21.789375" width="140.842205" height="144.423281"/>
  </clipPath>
 </defs>
</svg>
