<?xml version="1.0" encoding="utf-8" standalone="no"?>
<!DOCTYPE svg PUBLIC "-//W3C//DTD SVG 1.1//EN"
  "http://www.w3.org/Graphics/SVG/1.1/DTD/svg11.dtd">
<svg xmlns:xlink="http://www.w3.org/1999/xlink" width="931.995272pt" height="96.48pt" viewBox="0 0 931.995272 96.48" xmlns="http://www.w3.org/2000/svg" version="1.1">
 <metadata>
  <rdf:RDF xmlns:dc="http://purl.org/dc/elements/1.1/" xmlns:cc="http://creativecommons.org/ns#" xmlns:rdf="http://www.w3.org/1999/02/22-rdf-syntax-ns#">
   <cc:Work>
    <dc:type rdf:resource="http://purl.org/dc/dcmitype/StillImage"/>
    <dc:date>2024-05-02T22:13:03.188258</dc:date>
    <dc:format>image/svg+xml</dc:format>
    <dc:creator>
     <cc:Agent>
      <dc:title>Matplotlib v3.7.1, https://matplotlib.org/</dc:title>
     </cc:Agent>
    </dc:creator>
   </cc:Work>
  </rdf:RDF>
 </metadata>
 <defs>
  <style type="text/css">*{stroke-linejoin: round; stroke-linecap: butt}</style>
 </defs>
 <g id="figure_1">
  <g id="patch_1">
   <path d="M 0 96.48 
L 931.995272 96.48 
L 931.995272 0 
L 0 0 
z
" style="fill: #ffffff"/>
  </g>
  <g id="axes_1">
   <g id="patch_2">
    <path d="M 51.390058 58.212656 
L 234.802846 58.212656 
L 234.802846 21.789375 
L 51.390058 21.789375 
z
" style="fill: #eaeaf2"/>
   </g>
   <g id="matplotlib.axis_1">
    <g id="xtick_1">
     <g id="line2d_1">
      <path d="M 51.390058 58.212656 
L 51.390058 21.789375 
" clip-path="url(#pbc64aa11f6)" style="fill: none; stroke: #ffffff; stroke-linecap: round"/>
     </g>
     <g id="text_1">
      <text style="fill: #262626; font: 11px 'Arial', 'DejaVu Sans', 'Liberation Sans', 'Bitstream Vera Sans', sans-serif; text-anchor: middle" x="51.390058" y="75.58625" transform="rotate(-0 51.390058 75.58625)">0</text>
     </g>
    </g>
    <g id="xtick_2">
     <g id="line2d_2">
      <path d="M 97.243255 58.212656 
L 97.243255 21.789375 
" clip-path="url(#pbc64aa11f6)" style="fill: none; stroke: #ffffff; stroke-linecap: round"/>
     </g>
     <g id="text_2">
      <text style="fill: #262626; font: 11px 'Arial', 'DejaVu Sans', 'Liberation Sans', 'Bitstream Vera Sans', sans-serif; text-anchor: middle" x="97.243255" y="75.58625" transform="rotate(-0 97.243255 75.58625)">6</text>
     </g>
    </g>
    <g id="xtick_3">
     <g id="line2d_3">
      <path d="M 143.096452 58.212656 
L 143.096452 21.789375 
" clip-path="url(#pbc64aa11f6)" style="fill: none; stroke: #ffffff; stroke-linecap: round"/>
     </g>
     <g id="text_3">
      <text style="fill: #262626; font: 11px 'Arial', 'DejaVu Sans', 'Liberation Sans', 'Bitstream Vera Sans', sans-serif; text-anchor: middle" x="143.096452" y="75.58625" transform="rotate(-0 143.096452 75.58625)">12</text>
     </g>
    </g>
    <g id="xtick_4">
     <g id="line2d_4">
      <path d="M 188.949649 58.212656 
L 188.949649 21.789375 
" clip-path="url(#pbc64aa11f6)" style="fill: none; stroke: #ffffff; stroke-linecap: round"/>
     </g>
     <g id="text_4">
      <text style="fill: #262626; font: 11px 'Arial', 'DejaVu Sans', 'Liberation Sans', 'Bitstream Vera Sans', sans-serif; text-anchor: middle" x="188.949649" y="75.58625" transform="rotate(-0 188.949649 75.58625)">18</text>
     </g>
    </g>
    <g id="xtick_5">
     <g id="line2d_5">
      <path d="M 234.802846 58.212656 
L 234.802846 21.789375 
" clip-path="url(#pbc64aa11f6)" style="fill: none; stroke: #ffffff; stroke-linecap: round"/>
     </g>
     <g id="text_5">
      <text style="fill: #262626; font: 11px 'Arial', 'DejaVu Sans', 'Liberation Sans', 'Bitstream Vera Sans', sans-serif; text-anchor: middle" x="234.802846" y="75.58625" transform="rotate(-0 234.802846 75.58625)">24</text>
     </g>
    </g>
    <g id="text_6">
     <text style="fill: #262626; font: 8px 'Arial', 'DejaVu Sans', 'Liberation Sans', 'Bitstream Vera Sans', sans-serif; text-anchor: middle" x="143.096452" y="87.59625" transform="rotate(-0 143.096452 87.59625)">CPU Time (CPU Hour)</text>
    </g>
   </g>
   <g id="matplotlib.axis_2">
    <g id="ytick_1">
     <g id="line2d_6">
      <path d="M 51.390058 56.561688 
L 234.802846 56.561688 
" clip-path="url(#pbc64aa11f6)" style="fill: none; stroke: #ffffff; stroke-linecap: round"/>
     </g>
     <g id="text_7">
      <text style="fill: #262626; font: 11px 'Arial', 'DejaVu Sans', 'Liberation Sans', 'Bitstream Vera Sans', sans-serif; text-anchor: end" x="41.890058" y="60.498484" transform="rotate(-0 41.890058 60.498484)">5</text>
     </g>
    </g>
    <g id="ytick_2">
     <g id="line2d_7">
      <path d="M 51.390058 44.507691 
L 234.802846 44.507691 
" clip-path="url(#pbc64aa11f6)" style="fill: none; stroke: #ffffff; stroke-linecap: round"/>
     </g>
     <g id="text_8">
      <text style="fill: #262626; font: 11px 'Arial', 'DejaVu Sans', 'Liberation Sans', 'Bitstream Vera Sans', sans-serif; text-anchor: end" x="41.890058" y="48.444487" transform="rotate(-0 41.890058 48.444487)">10</text>
     </g>
    </g>
    <g id="ytick_3">
     <g id="line2d_8">
      <path d="M 51.390058 32.453693 
L 234.802846 32.453693 
" clip-path="url(#pbc64aa11f6)" style="fill: none; stroke: #ffffff; stroke-linecap: round"/>
     </g>
     <g id="text_9">
      <text style="fill: #262626; font: 11px 'Arial', 'DejaVu Sans', 'Liberation Sans', 'Bitstream Vera Sans', sans-serif; text-anchor: end" x="41.890058" y="36.39049" transform="rotate(-0 41.890058 36.39049)">15</text>
     </g>
    </g>
    <g id="text_10">
     <text style="fill: #262626; font: 8px 'Arial', 'DejaVu Sans', 'Liberation Sans', 'Bitstream Vera Sans', sans-serif; text-anchor: middle" x="13.02375" y="40.001016" transform="rotate(-90 13.02375 40.001016)">Bitmap Density (\%)</text>
    </g>
   </g>
   <g id="PolyCollection_1">
    <defs>
     <path id="m203e672f2d" d="M 53.300607 -41.130113 
L 53.300607 -39.922947 
L 55.211157 -40.962296 
L 57.121707 -41.24551 
L 59.032257 -41.574891 
L 60.942807 -42.060133 
L 62.853357 -42.668609 
L 64.763907 -44.021299 
L 66.674457 -45.010104 
L 68.585006 -45.332679 
L 70.495556 -45.377631 
L 72.406106 -45.725442 
L 74.316656 -46.172979 
L 76.227206 -46.91186 
L 78.137756 -47.481305 
L 80.048306 -47.633084 
L 81.958856 -47.805021 
L 83.869406 -48.190574 
L 85.779955 -48.858863 
L 87.690505 -48.917426 
L 89.601055 -49.168968 
L 91.511605 -49.214472 
L 93.422155 -49.331856 
L 95.332705 -49.588805 
L 97.243255 -49.784249 
L 99.153805 -49.848734 
L 101.064354 -50.260184 
L 102.974904 -50.581399 
L 104.885454 -51.057298 
L 106.796004 -51.239976 
L 108.706554 -51.409191 
L 110.617104 -51.681333 
L 112.527654 -51.691633 
L 114.438204 -52.122837 
L 116.348753 -51.923016 
L 118.259303 -52.288447 
L 120.169853 -52.653547 
L 122.080403 -52.681799 
L 123.990953 -52.772807 
L 125.901503 -52.806834 
L 127.812053 -52.989218 
L 129.722603 -53.661995 
L 131.633152 -53.67259 
L 133.543702 -53.932629 
L 135.454252 -54.33525 
L 137.364802 -54.304792 
L 139.275352 -54.343858 
L 141.185902 -54.441966 
L 143.096452 -54.79272 
L 145.007002 -55.094548 
L 146.917551 -55.283039 
L 148.828101 -55.695224 
L 150.738651 -56.075406 
L 152.649201 -56.140113 
L 154.559751 -56.576062 
L 156.470301 -56.612995 
L 158.380851 -56.974122 
L 160.291401 -57.327671 
L 162.20195 -57.497769 
L 164.1125 -57.336831 
L 166.02305 -58.343035 
L 167.9336 -58.621026 
L 169.84415 -58.810179 
L 171.7547 -58.543997 
L 173.66525 -59.527541 
L 175.5758 -59.451541 
L 177.486349 -59.570359 
L 179.396899 -59.76709 
L 181.307449 -59.5715 
L 183.217999 -60.322005 
L 185.128549 -60.004874 
L 187.039099 -60.479596 
L 188.949649 -60.694242 
L 190.860199 -60.822624 
L 192.770748 -61.359293 
L 194.681298 -62.008748 
L 196.591848 -61.934625 
L 198.502398 -62.266544 
L 200.412948 -62.305978 
L 202.323498 -62.387054 
L 204.234048 -62.935274 
L 206.144598 -63.072338 
L 208.055147 -62.937297 
L 209.965697 -63.590835 
L 211.876247 -63.22397 
L 213.786797 -63.688024 
L 215.697347 -63.7169 
L 217.607897 -63.806143 
L 219.518447 -64.063571 
L 221.428997 -64.336044 
L 223.339546 -64.600277 
L 225.250096 -64.557164 
L 227.160646 -64.62588 
L 229.071196 -65.212136 
L 230.981746 -65.361524 
L 232.892296 -64.708979 
L 234.802846 -65.21655 
L 234.802846 -72.989775 
L 234.802846 -72.989775 
L 232.892296 -72.429305 
L 230.981746 -73.035021 
L 229.071196 -72.60871 
L 227.160646 -72.55938 
L 225.250096 -72.278262 
L 223.339546 -72.077485 
L 221.428997 -72.27359 
L 219.518447 -71.522901 
L 217.607897 -71.09578 
L 215.697347 -70.933591 
L 213.786797 -71.316422 
L 211.876247 -70.695844 
L 209.965697 -70.342552 
L 208.055147 -70.250514 
L 206.144598 -70.572317 
L 204.234048 -70.184005 
L 202.323498 -69.669886 
L 200.412948 -69.290991 
L 198.502398 -69.295516 
L 196.591848 -68.955725 
L 194.681298 -69.015686 
L 192.770748 -69.17644 
L 190.860199 -68.050976 
L 188.949649 -67.59152 
L 187.039099 -68.120501 
L 185.128549 -67.313493 
L 183.217999 -67.337036 
L 181.307449 -66.60588 
L 179.396899 -66.803125 
L 177.486349 -66.698985 
L 175.5758 -66.636007 
L 173.66525 -65.993542 
L 171.7547 -64.768572 
L 169.84415 -64.762613 
L 167.9336 -64.810986 
L 166.02305 -64.49632 
L 164.1125 -64.094213 
L 162.20195 -63.654879 
L 160.291401 -63.671654 
L 158.380851 -62.533756 
L 156.470301 -62.897164 
L 154.559751 -61.84049 
L 152.649201 -61.798627 
L 150.738651 -61.51442 
L 148.828101 -60.806512 
L 146.917551 -60.593595 
L 145.007002 -60.176664 
L 143.096452 -60.362139 
L 141.185902 -59.756459 
L 139.275352 -59.341294 
L 137.364802 -59.098102 
L 135.454252 -58.913768 
L 133.543702 -58.583688 
L 131.633152 -58.554848 
L 129.722603 -58.188902 
L 127.812053 -57.112364 
L 125.901503 -56.900698 
L 123.990953 -56.659861 
L 122.080403 -56.538614 
L 120.169853 -56.111972 
L 118.259303 -55.364924 
L 116.348753 -55.180038 
L 114.438204 -55.212079 
L 112.527654 -54.676219 
L 110.617104 -54.453627 
L 108.706554 -54.055016 
L 106.796004 -53.889957 
L 104.885454 -53.790415 
L 102.974904 -52.87463 
L 101.064354 -52.414108 
L 99.153805 -52.201486 
L 97.243255 -52.062325 
L 95.332705 -51.821524 
L 93.422155 -51.586499 
L 91.511605 -51.257817 
L 89.601055 -51.307846 
L 87.690505 -50.962059 
L 85.779955 -50.701468 
L 83.869406 -49.968803 
L 81.958856 -49.285101 
L 80.048306 -49.107241 
L 78.137756 -48.87332 
L 76.227206 -48.243729 
L 74.316656 -47.565471 
L 72.406106 -47.170354 
L 70.495556 -46.910462 
L 68.585006 -46.725208 
L 66.674457 -46.10544 
L 64.763907 -44.730715 
L 62.853357 -43.576227 
L 60.942807 -42.989051 
L 59.032257 -42.739201 
L 57.121707 -42.421996 
L 55.211157 -41.891066 
L 53.300607 -41.130113 
z
" style="stroke: #c49c94; stroke-opacity: 0.2"/>
    </defs>
    <g clip-path="url(#pbc64aa11f6)">
     <use xlink:href="#m203e672f2d" x="0" y="96.48" style="fill: #c49c94; fill-opacity: 0.2; stroke: #c49c94; stroke-opacity: 0.2"/>
    </g>
   </g>
   <g id="line2d_9">
    <path d="M 53.300607 55.969067 
L 55.211157 55.074067 
L 57.121707 54.70584 
L 59.032257 54.364099 
L 60.942807 53.973801 
L 62.853357 53.352855 
L 64.763907 52.105446 
L 66.674457 50.935655 
L 68.585006 50.479142 
L 70.495556 50.33347 
L 72.406106 50.067508 
L 74.316656 49.632331 
L 76.227206 48.939653 
L 78.137756 48.324961 
L 80.048306 48.163103 
L 81.958856 47.941652 
L 83.869406 47.410096 
L 85.779955 46.731765 
L 87.690505 46.525028 
L 89.601055 46.308359 
L 91.511605 46.217498 
L 93.422155 46.068148 
L 95.332705 45.81175 
L 97.243255 45.588092 
L 99.153805 45.465227 
L 101.064354 45.199633 
L 102.974904 44.735027 
L 104.885454 44.13321 
L 106.796004 43.968042 
L 108.706554 43.788527 
L 110.617104 43.558983 
L 112.527654 43.199585 
L 114.438204 42.901619 
L 116.348753 42.852326 
L 118.259303 42.624989 
L 120.169853 42.132794 
L 122.080403 41.885225 
L 123.990953 41.738817 
L 125.901503 41.664142 
L 127.812053 41.460716 
L 129.722603 40.745231 
L 131.633152 40.339115 
L 133.543702 40.234275 
L 135.454252 40.077935 
L 137.364802 39.752012 
L 139.275352 39.437125 
L 141.185902 39.108627 
L 143.096452 39.011144 
L 145.007002 38.862897 
L 146.917551 38.614225 
L 148.828101 38.033376 
L 150.738651 37.817075 
L 152.649201 37.684646 
L 154.559751 37.345112 
L 156.470301 36.986082 
L 158.380851 36.407808 
L 160.291401 36.083724 
L 162.20195 35.886552 
L 164.1125 35.678344 
L 166.02305 35.083884 
L 167.9336 34.762743 
L 169.84415 34.513335 
L 171.7547 34.411438 
L 173.66525 34.058661 
L 175.5758 33.68271 
L 177.486349 33.329565 
L 179.396899 33.260776 
L 181.307449 33.119518 
L 183.217999 32.808309 
L 185.128549 32.534622 
L 187.039099 32.359889 
L 188.949649 32.245118 
L 190.860199 32.121517 
L 192.770748 31.33761 
L 194.681298 30.963865 
L 196.591848 30.891765 
L 198.502398 30.873372 
L 200.412948 30.716296 
L 202.323498 30.324159 
L 204.234048 30.069968 
L 206.144598 29.942689 
L 208.055147 29.793707 
L 209.965697 29.542091 
L 211.876247 29.201822 
L 213.786797 29.073071 
L 215.697347 29.005017 
L 217.607897 28.845367 
L 219.518447 28.626858 
L 221.428997 28.261942 
L 223.339546 28.153424 
L 225.250096 28.111488 
L 227.160646 27.923512 
L 229.071196 27.716408 
L 230.981746 27.474725 
L 232.892296 27.429478 
L 234.802846 27.355538 
" clip-path="url(#pbc64aa11f6)" style="fill: none; stroke: #c49c94; stroke-width: 3; stroke-linecap: round"/>
   </g>
   <g id="line2d_10"/>
   <g id="patch_3">
    <path d="M 51.390058 58.212656 
L 51.390058 21.789375 
" style="fill: none; stroke: #ffffff; stroke-width: 1.25; stroke-linejoin: miter; stroke-linecap: square"/>
   </g>
   <g id="patch_4">
    <path d="M 51.390058 58.212656 
L 234.802846 58.212656 
" style="fill: none; stroke: #ffffff; stroke-width: 1.25; stroke-linejoin: miter; stroke-linecap: square"/>
   </g>
   <g id="text_11">
    <text style="fill: #262626; font: 12px 'Arial', 'DejaVu Sans', 'Liberation Sans', 'Bitstream Vera Sans', sans-serif; text-anchor: middle" x="143.096452" y="15.789375" transform="rotate(-0 143.096452 15.789375)">tcpdump</text>
   </g>
  </g>
  <g id="legend_1">
   <g id="line2d_11">
    <path d="M 859.632304 64.80375 
L 870.632304 64.80375 
L 881.632304 64.80375 
" style="fill: none; stroke: #c49c94; stroke-width: 3; stroke-linecap: round"/>
   </g>
   <g id="text_12">
    <text style="fill: #262626; font: 11px 'Arial', 'DejaVu Sans', 'Liberation Sans', 'Bitstream Vera Sans', sans-serif; text-anchor: start" x="890.432304" y="68.65375" transform="rotate(-0 890.432304 68.65375)">autofz</text>
   </g>
  </g>
 </g>
 <defs>
  <clipPath id="pbc64aa11f6">
   <rect x="51.390058" y="21.789375" width="183.412788" height="36.423281"/>
  </clipPath>
 </defs>
</svg>
